<?xml version="1.0" encoding="UTF-8" standalone="no"?>
<svg
xmlns="http://www.w3.org/2000/svg"
version="1.0"
width="1600" height="1600"
id="6-cube_t34_B5.svg">
<g style="stroke:#000000;stroke-width:6.0;stroke-opacity:0.50;">
<line x1="1337.788" y1="288.533" x2="1306.049" y2="386.215"/>
<line x1="1337.788" y1="288.533" x2="1037.155" y2="190.852"/>
<line x1="1337.788" y1="288.533" x2="1222.957" y2="446.585"/>
<line x1="1337.788" y1="288.533" x2="1120.248" y2="130.481"/>
<line x1="1337.788" y1="288.533" x2="1171.602" y2="288.533"/>
<line x1="1337.788" y1="288.533" x2="1369.527" y2="386.215"/>
<line x1="1337.788" y1="288.533" x2="1452.619" y2="446.585"/>
<line x1="1132.371" y1="920.741" x2="1100.633" y2="1018.422"/>
<line x1="1132.371" y1="920.741" x2="831.739" y2="823.059"/>
<line x1="1132.371" y1="920.741" x2="1017.540" y2="1078.793"/>
<line x1="1132.371" y1="920.741" x2="914.831" y2="762.689"/>
<line x1="1132.371" y1="920.741" x2="966.186" y2="920.741"/>
<line x1="1132.371" y1="920.741" x2="1164.110" y2="1018.422"/>
<line x1="1132.371" y1="920.741" x2="1349.911" y2="762.689"/>
<line x1="800.000" y1="679.259" x2="768.261" y2="776.941"/>
<line x1="800.000" y1="679.259" x2="499.367" y2="581.578"/>
<line x1="800.000" y1="679.259" x2="685.169" y2="837.311"/>
<line x1="800.000" y1="679.259" x2="582.460" y2="521.207"/>
<line x1="800.000" y1="679.259" x2="633.814" y2="679.259"/>
<line x1="800.000" y1="679.259" x2="1100.633" y2="581.578"/>
<line x1="800.000" y1="679.259" x2="914.831" y2="837.311"/>
<line x1="594.583" y1="1311.467" x2="562.845" y2="1409.148"/>
<line x1="594.583" y1="1311.467" x2="293.951" y2="1213.785"/>
<line x1="594.583" y1="1311.467" x2="479.752" y2="1469.519"/>
<line x1="594.583" y1="1311.467" x2="377.043" y2="1153.415"/>
<line x1="594.583" y1="1311.467" x2="428.398" y2="1311.467"/>
<line x1="594.583" y1="1311.467" x2="895.216" y2="1213.785"/>
<line x1="594.583" y1="1311.467" x2="812.123" y2="1153.415"/>
<line x1="1005.417" y1="288.533" x2="1306.049" y2="386.215"/>
<line x1="1005.417" y1="288.533" x2="1037.155" y2="190.852"/>
<line x1="1005.417" y1="288.533" x2="1222.957" y2="446.585"/>
<line x1="1005.417" y1="288.533" x2="1120.248" y2="130.481"/>
<line x1="1005.417" y1="288.533" x2="1171.602" y2="288.533"/>
<line x1="1005.417" y1="288.533" x2="704.784" y2="386.215"/>
<line x1="1005.417" y1="288.533" x2="787.877" y2="446.585"/>
<line x1="800.000" y1="920.741" x2="1100.633" y2="1018.422"/>
<line x1="800.000" y1="920.741" x2="831.739" y2="823.059"/>
<line x1="800.000" y1="920.741" x2="1017.540" y2="1078.793"/>
<line x1="800.000" y1="920.741" x2="914.831" y2="762.689"/>
<line x1="800.000" y1="920.741" x2="966.186" y2="920.741"/>
<line x1="800.000" y1="920.741" x2="499.367" y2="1018.422"/>
<line x1="800.000" y1="920.741" x2="685.169" y2="762.689"/>
<line x1="467.629" y1="679.259" x2="768.261" y2="776.941"/>
<line x1="467.629" y1="679.259" x2="499.367" y2="581.578"/>
<line x1="467.629" y1="679.259" x2="685.169" y2="837.311"/>
<line x1="467.629" y1="679.259" x2="582.460" y2="521.207"/>
<line x1="467.629" y1="679.259" x2="633.814" y2="679.259"/>
<line x1="467.629" y1="679.259" x2="435.890" y2="581.578"/>
<line x1="467.629" y1="679.259" x2="250.089" y2="837.311"/>
<line x1="262.212" y1="1311.467" x2="562.845" y2="1409.148"/>
<line x1="262.212" y1="1311.467" x2="293.951" y2="1213.785"/>
<line x1="262.212" y1="1311.467" x2="479.752" y2="1469.519"/>
<line x1="262.212" y1="1311.467" x2="377.043" y2="1153.415"/>
<line x1="262.212" y1="1311.467" x2="428.398" y2="1311.467"/>
<line x1="262.212" y1="1311.467" x2="230.473" y2="1213.785"/>
<line x1="262.212" y1="1311.467" x2="147.381" y2="1153.415"/>
<line x1="1306.049" y1="386.215" x2="1222.957" y2="446.585"/>
<line x1="1306.049" y1="386.215" x2="1120.248" y2="130.481"/>
<line x1="1306.049" y1="386.215" x2="1171.602" y2="288.533"/>
<line x1="1306.049" y1="386.215" x2="1306.049" y2="581.578"/>
<line x1="1306.049" y1="386.215" x2="1389.142" y2="641.948"/>
<line x1="1100.633" y1="1018.422" x2="1017.540" y2="1078.793"/>
<line x1="1100.633" y1="1018.422" x2="914.831" y2="762.689"/>
<line x1="1100.633" y1="1018.422" x2="966.186" y2="920.741"/>
<line x1="1100.633" y1="1018.422" x2="1100.633" y2="1213.785"/>
<line x1="1100.633" y1="1018.422" x2="1286.434" y2="958.052"/>
<line x1="768.261" y1="776.941" x2="685.169" y2="837.311"/>
<line x1="768.261" y1="776.941" x2="582.460" y2="521.207"/>
<line x1="768.261" y1="776.941" x2="633.814" y2="679.259"/>
<line x1="768.261" y1="776.941" x2="1037.155" y2="776.941"/>
<line x1="768.261" y1="776.941" x2="851.354" y2="1032.674"/>
<line x1="562.845" y1="1409.148" x2="479.752" y2="1469.519"/>
<line x1="562.845" y1="1409.148" x2="377.043" y2="1153.415"/>
<line x1="562.845" y1="1409.148" x2="428.398" y2="1311.467"/>
<line x1="562.845" y1="1409.148" x2="831.739" y2="1409.148"/>
<line x1="562.845" y1="1409.148" x2="748.646" y2="1348.778"/>
<line x1="1037.155" y1="190.852" x2="1222.957" y2="446.585"/>
<line x1="1037.155" y1="190.852" x2="1120.248" y2="130.481"/>
<line x1="1037.155" y1="190.852" x2="1171.602" y2="288.533"/>
<line x1="1037.155" y1="190.852" x2="768.261" y2="190.852"/>
<line x1="1037.155" y1="190.852" x2="851.354" y2="251.222"/>
<line x1="831.739" y1="823.059" x2="1017.540" y2="1078.793"/>
<line x1="831.739" y1="823.059" x2="914.831" y2="762.689"/>
<line x1="831.739" y1="823.059" x2="966.186" y2="920.741"/>
<line x1="831.739" y1="823.059" x2="562.845" y2="823.059"/>
<line x1="831.739" y1="823.059" x2="748.646" y2="567.326"/>
<line x1="499.367" y1="581.578" x2="685.169" y2="837.311"/>
<line x1="499.367" y1="581.578" x2="582.460" y2="521.207"/>
<line x1="499.367" y1="581.578" x2="633.814" y2="679.259"/>
<line x1="499.367" y1="581.578" x2="499.367" y2="386.215"/>
<line x1="499.367" y1="581.578" x2="313.566" y2="641.948"/>
<line x1="293.951" y1="1213.785" x2="479.752" y2="1469.519"/>
<line x1="293.951" y1="1213.785" x2="377.043" y2="1153.415"/>
<line x1="293.951" y1="1213.785" x2="428.398" y2="1311.467"/>
<line x1="293.951" y1="1213.785" x2="293.951" y2="1018.422"/>
<line x1="293.951" y1="1213.785" x2="210.858" y2="958.052"/>
<line x1="1222.957" y1="446.585" x2="1171.602" y2="288.533"/>
<line x1="1222.957" y1="446.585" x2="1139.864" y2="702.319"/>
<line x1="1222.957" y1="446.585" x2="1222.957" y2="762.689"/>
<line x1="1017.540" y1="1078.793" x2="966.186" y2="920.741"/>
<line x1="1017.540" y1="1078.793" x2="934.447" y2="1334.526"/>
<line x1="1017.540" y1="1078.793" x2="1120.248" y2="1078.793"/>
<line x1="685.169" y1="837.311" x2="633.814" y2="679.259"/>
<line x1="685.169" y1="837.311" x2="870.970" y2="897.681"/>
<line x1="685.169" y1="837.311" x2="685.169" y2="1153.415"/>
<line x1="479.752" y1="1469.519" x2="428.398" y2="1311.467"/>
<line x1="479.752" y1="1469.519" x2="665.553" y2="1529.889"/>
<line x1="479.752" y1="1469.519" x2="582.460" y2="1469.519"/>
<line x1="1120.248" y1="130.481" x2="1171.602" y2="288.533"/>
<line x1="1120.248" y1="130.481" x2="934.447" y2="70.111"/>
<line x1="1120.248" y1="130.481" x2="1017.540" y2="130.481"/>
<line x1="914.831" y1="762.689" x2="966.186" y2="920.741"/>
<line x1="914.831" y1="762.689" x2="729.030" y2="702.319"/>
<line x1="914.831" y1="762.689" x2="914.831" y2="446.585"/>
<line x1="582.460" y1="521.207" x2="633.814" y2="679.259"/>
<line x1="582.460" y1="521.207" x2="665.553" y2="265.474"/>
<line x1="582.460" y1="521.207" x2="479.752" y2="521.207"/>
<line x1="377.043" y1="1153.415" x2="428.398" y2="1311.467"/>
<line x1="377.043" y1="1153.415" x2="460.136" y2="897.681"/>
<line x1="377.043" y1="1153.415" x2="377.043" y2="837.311"/>
<line x1="1171.602" y1="288.533" x2="1037.155" y2="386.215"/>
<line x1="1171.602" y1="288.533" x2="1120.248" y2="446.585"/>
<line x1="966.186" y1="920.741" x2="831.739" y2="1018.422"/>
<line x1="966.186" y1="920.741" x2="1017.540" y2="762.689"/>
<line x1="633.814" y1="679.259" x2="768.261" y2="581.578"/>
<line x1="633.814" y1="679.259" x2="582.460" y2="837.311"/>
<line x1="428.398" y1="1311.467" x2="562.845" y2="1213.785"/>
<line x1="428.398" y1="1311.467" x2="479.752" y2="1153.415"/>
<line x1="1369.527" y1="386.215" x2="1369.527" y2="581.578"/>
<line x1="1369.527" y1="386.215" x2="1100.633" y2="386.215"/>
<line x1="1369.527" y1="386.215" x2="1286.434" y2="641.948"/>
<line x1="1369.527" y1="386.215" x2="1183.725" y2="325.844"/>
<line x1="1369.527" y1="386.215" x2="1235.080" y2="483.896"/>
<line x1="1369.527" y1="386.215" x2="1452.619" y2="446.585"/>
<line x1="1164.110" y1="1018.422" x2="1164.110" y2="1213.785"/>
<line x1="1164.110" y1="1018.422" x2="895.216" y2="1018.422"/>
<line x1="1164.110" y1="1018.422" x2="1081.017" y2="1274.156"/>
<line x1="1164.110" y1="1018.422" x2="978.309" y2="958.052"/>
<line x1="1164.110" y1="1018.422" x2="1029.663" y2="1116.104"/>
<line x1="1164.110" y1="1018.422" x2="1349.911" y2="762.689"/>
<line x1="1100.633" y1="581.578" x2="1369.527" y2="581.578"/>
<line x1="1100.633" y1="581.578" x2="1100.633" y2="386.215"/>
<line x1="1100.633" y1="581.578" x2="1286.434" y2="641.948"/>
<line x1="1100.633" y1="581.578" x2="1183.725" y2="325.844"/>
<line x1="1100.633" y1="581.578" x2="1235.080" y2="483.896"/>
<line x1="1100.633" y1="581.578" x2="914.831" y2="837.311"/>
<line x1="895.216" y1="1213.785" x2="1164.110" y2="1213.785"/>
<line x1="895.216" y1="1213.785" x2="895.216" y2="1018.422"/>
<line x1="895.216" y1="1213.785" x2="1081.017" y2="1274.156"/>
<line x1="895.216" y1="1213.785" x2="978.309" y2="958.052"/>
<line x1="895.216" y1="1213.785" x2="1029.663" y2="1116.104"/>
<line x1="895.216" y1="1213.785" x2="812.123" y2="1153.415"/>
<line x1="704.784" y1="386.215" x2="704.784" y2="581.578"/>
<line x1="704.784" y1="386.215" x2="435.890" y2="386.215"/>
<line x1="704.784" y1="386.215" x2="621.691" y2="641.948"/>
<line x1="704.784" y1="386.215" x2="518.983" y2="325.844"/>
<line x1="704.784" y1="386.215" x2="570.337" y2="483.896"/>
<line x1="704.784" y1="386.215" x2="787.877" y2="446.585"/>
<line x1="499.367" y1="1018.422" x2="499.367" y2="1213.785"/>
<line x1="499.367" y1="1018.422" x2="230.473" y2="1018.422"/>
<line x1="499.367" y1="1018.422" x2="416.275" y2="1274.156"/>
<line x1="499.367" y1="1018.422" x2="313.566" y2="958.052"/>
<line x1="499.367" y1="1018.422" x2="364.920" y2="1116.104"/>
<line x1="499.367" y1="1018.422" x2="685.169" y2="762.689"/>
<line x1="435.890" y1="581.578" x2="704.784" y2="581.578"/>
<line x1="435.890" y1="581.578" x2="435.890" y2="386.215"/>
<line x1="435.890" y1="581.578" x2="621.691" y2="641.948"/>
<line x1="435.890" y1="581.578" x2="518.983" y2="325.844"/>
<line x1="435.890" y1="581.578" x2="570.337" y2="483.896"/>
<line x1="435.890" y1="581.578" x2="250.089" y2="837.311"/>
<line x1="230.473" y1="1213.785" x2="499.367" y2="1213.785"/>
<line x1="230.473" y1="1213.785" x2="230.473" y2="1018.422"/>
<line x1="230.473" y1="1213.785" x2="416.275" y2="1274.156"/>
<line x1="230.473" y1="1213.785" x2="313.566" y2="958.052"/>
<line x1="230.473" y1="1213.785" x2="364.920" y2="1116.104"/>
<line x1="230.473" y1="1213.785" x2="147.381" y2="1153.415"/>
<line x1="1306.049" y1="581.578" x2="1337.788" y2="679.259"/>
<line x1="1306.049" y1="581.578" x2="1005.417" y2="679.259"/>
<line x1="1306.049" y1="581.578" x2="1222.957" y2="837.311"/>
<line x1="1306.049" y1="581.578" x2="1120.248" y2="521.207"/>
<line x1="1306.049" y1="581.578" x2="1171.602" y2="679.259"/>
<line x1="1306.049" y1="581.578" x2="1389.142" y2="641.948"/>
<line x1="1100.633" y1="1213.785" x2="1132.371" y2="1311.467"/>
<line x1="1100.633" y1="1213.785" x2="800.000" y2="1311.467"/>
<line x1="1100.633" y1="1213.785" x2="1017.540" y2="1469.519"/>
<line x1="1100.633" y1="1213.785" x2="914.831" y2="1153.415"/>
<line x1="1100.633" y1="1213.785" x2="966.186" y2="1311.467"/>
<line x1="1100.633" y1="1213.785" x2="1286.434" y2="958.052"/>
<line x1="1037.155" y1="776.941" x2="1337.788" y2="679.259"/>
<line x1="1037.155" y1="776.941" x2="1005.417" y2="679.259"/>
<line x1="1037.155" y1="776.941" x2="1222.957" y2="837.311"/>
<line x1="1037.155" y1="776.941" x2="1120.248" y2="521.207"/>
<line x1="1037.155" y1="776.941" x2="1171.602" y2="679.259"/>
<line x1="1037.155" y1="776.941" x2="851.354" y2="1032.674"/>
<line x1="831.739" y1="1409.148" x2="1132.371" y2="1311.467"/>
<line x1="831.739" y1="1409.148" x2="800.000" y2="1311.467"/>
<line x1="831.739" y1="1409.148" x2="1017.540" y2="1469.519"/>
<line x1="831.739" y1="1409.148" x2="914.831" y2="1153.415"/>
<line x1="831.739" y1="1409.148" x2="966.186" y2="1311.467"/>
<line x1="831.739" y1="1409.148" x2="748.646" y2="1348.778"/>
<line x1="768.261" y1="190.852" x2="800.000" y2="288.533"/>
<line x1="768.261" y1="190.852" x2="467.629" y2="288.533"/>
<line x1="768.261" y1="190.852" x2="685.169" y2="446.585"/>
<line x1="768.261" y1="190.852" x2="582.460" y2="130.481"/>
<line x1="768.261" y1="190.852" x2="633.814" y2="288.533"/>
<line x1="768.261" y1="190.852" x2="851.354" y2="251.222"/>
<line x1="562.845" y1="823.059" x2="594.583" y2="920.741"/>
<line x1="562.845" y1="823.059" x2="262.212" y2="920.741"/>
<line x1="562.845" y1="823.059" x2="479.752" y2="1078.793"/>
<line x1="562.845" y1="823.059" x2="377.043" y2="762.689"/>
<line x1="562.845" y1="823.059" x2="428.398" y2="920.741"/>
<line x1="562.845" y1="823.059" x2="748.646" y2="567.326"/>
<line x1="499.367" y1="386.215" x2="800.000" y2="288.533"/>
<line x1="499.367" y1="386.215" x2="467.629" y2="288.533"/>
<line x1="499.367" y1="386.215" x2="685.169" y2="446.585"/>
<line x1="499.367" y1="386.215" x2="582.460" y2="130.481"/>
<line x1="499.367" y1="386.215" x2="633.814" y2="288.533"/>
<line x1="499.367" y1="386.215" x2="313.566" y2="641.948"/>
<line x1="293.951" y1="1018.422" x2="594.583" y2="920.741"/>
<line x1="293.951" y1="1018.422" x2="262.212" y2="920.741"/>
<line x1="293.951" y1="1018.422" x2="479.752" y2="1078.793"/>
<line x1="293.951" y1="1018.422" x2="377.043" y2="762.689"/>
<line x1="293.951" y1="1018.422" x2="428.398" y2="920.741"/>
<line x1="293.951" y1="1018.422" x2="210.858" y2="958.052"/>
<line x1="1139.864" y1="702.319" x2="1171.602" y2="800.000"/>
<line x1="1139.864" y1="702.319" x2="839.231" y2="800.000"/>
<line x1="1139.864" y1="702.319" x2="1139.864" y2="897.681"/>
<line x1="1139.864" y1="702.319" x2="870.970" y2="702.319"/>
<line x1="1139.864" y1="702.319" x2="1005.417" y2="800.000"/>
<line x1="1139.864" y1="702.319" x2="1222.957" y2="762.689"/>
<line x1="934.447" y1="1334.526" x2="966.186" y2="1432.208"/>
<line x1="934.447" y1="1334.526" x2="633.814" y2="1432.208"/>
<line x1="934.447" y1="1334.526" x2="934.447" y2="1529.889"/>
<line x1="934.447" y1="1334.526" x2="665.553" y2="1334.526"/>
<line x1="934.447" y1="1334.526" x2="800.000" y2="1432.208"/>
<line x1="934.447" y1="1334.526" x2="1120.248" y2="1078.793"/>
<line x1="870.970" y1="897.681" x2="1171.602" y2="800.000"/>
<line x1="870.970" y1="897.681" x2="839.231" y2="800.000"/>
<line x1="870.970" y1="897.681" x2="1139.864" y2="897.681"/>
<line x1="870.970" y1="897.681" x2="870.970" y2="702.319"/>
<line x1="870.970" y1="897.681" x2="1005.417" y2="800.000"/>
<line x1="870.970" y1="897.681" x2="685.169" y2="1153.415"/>
<line x1="665.553" y1="1529.889" x2="966.186" y2="1432.208"/>
<line x1="665.553" y1="1529.889" x2="633.814" y2="1432.208"/>
<line x1="665.553" y1="1529.889" x2="934.447" y2="1529.889"/>
<line x1="665.553" y1="1529.889" x2="665.553" y2="1334.526"/>
<line x1="665.553" y1="1529.889" x2="800.000" y2="1432.208"/>
<line x1="665.553" y1="1529.889" x2="582.460" y2="1469.519"/>
<line x1="934.447" y1="70.111" x2="966.186" y2="167.792"/>
<line x1="934.447" y1="70.111" x2="633.814" y2="167.792"/>
<line x1="934.447" y1="70.111" x2="934.447" y2="265.474"/>
<line x1="934.447" y1="70.111" x2="665.553" y2="70.111"/>
<line x1="934.447" y1="70.111" x2="800.000" y2="167.792"/>
<line x1="934.447" y1="70.111" x2="1017.540" y2="130.481"/>
<line x1="729.030" y1="702.319" x2="760.769" y2="800.000"/>
<line x1="729.030" y1="702.319" x2="428.398" y2="800.000"/>
<line x1="729.030" y1="702.319" x2="729.030" y2="897.681"/>
<line x1="729.030" y1="702.319" x2="460.136" y2="702.319"/>
<line x1="729.030" y1="702.319" x2="594.583" y2="800.000"/>
<line x1="729.030" y1="702.319" x2="914.831" y2="446.585"/>
<line x1="665.553" y1="265.474" x2="966.186" y2="167.792"/>
<line x1="665.553" y1="265.474" x2="633.814" y2="167.792"/>
<line x1="665.553" y1="265.474" x2="934.447" y2="265.474"/>
<line x1="665.553" y1="265.474" x2="665.553" y2="70.111"/>
<line x1="665.553" y1="265.474" x2="800.000" y2="167.792"/>
<line x1="665.553" y1="265.474" x2="479.752" y2="521.207"/>
<line x1="460.136" y1="897.681" x2="760.769" y2="800.000"/>
<line x1="460.136" y1="897.681" x2="428.398" y2="800.000"/>
<line x1="460.136" y1="897.681" x2="729.030" y2="897.681"/>
<line x1="460.136" y1="897.681" x2="460.136" y2="702.319"/>
<line x1="460.136" y1="897.681" x2="594.583" y2="800.000"/>
<line x1="460.136" y1="897.681" x2="377.043" y2="837.311"/>
<line x1="1037.155" y1="386.215" x2="1068.894" y2="483.896"/>
<line x1="1037.155" y1="386.215" x2="736.523" y2="483.896"/>
<line x1="1037.155" y1="386.215" x2="1037.155" y2="581.578"/>
<line x1="1037.155" y1="386.215" x2="768.261" y2="386.215"/>
<line x1="1037.155" y1="386.215" x2="954.063" y2="641.948"/>
<line x1="1037.155" y1="386.215" x2="851.354" y2="325.844"/>
<line x1="1037.155" y1="386.215" x2="1120.248" y2="446.585"/>
<line x1="831.739" y1="1018.422" x2="863.477" y2="1116.104"/>
<line x1="831.739" y1="1018.422" x2="531.106" y2="1116.104"/>
<line x1="831.739" y1="1018.422" x2="831.739" y2="1213.785"/>
<line x1="831.739" y1="1018.422" x2="562.845" y2="1018.422"/>
<line x1="831.739" y1="1018.422" x2="748.646" y2="1274.156"/>
<line x1="831.739" y1="1018.422" x2="645.937" y2="958.052"/>
<line x1="831.739" y1="1018.422" x2="1017.540" y2="762.689"/>
<line x1="768.261" y1="581.578" x2="1068.894" y2="483.896"/>
<line x1="768.261" y1="581.578" x2="736.523" y2="483.896"/>
<line x1="768.261" y1="581.578" x2="1037.155" y2="581.578"/>
<line x1="768.261" y1="581.578" x2="768.261" y2="386.215"/>
<line x1="768.261" y1="581.578" x2="954.063" y2="641.948"/>
<line x1="768.261" y1="581.578" x2="851.354" y2="325.844"/>
<line x1="768.261" y1="581.578" x2="582.460" y2="837.311"/>
<line x1="562.845" y1="1213.785" x2="863.477" y2="1116.104"/>
<line x1="562.845" y1="1213.785" x2="531.106" y2="1116.104"/>
<line x1="562.845" y1="1213.785" x2="831.739" y2="1213.785"/>
<line x1="562.845" y1="1213.785" x2="562.845" y2="1018.422"/>
<line x1="562.845" y1="1213.785" x2="748.646" y2="1274.156"/>
<line x1="562.845" y1="1213.785" x2="645.937" y2="958.052"/>
<line x1="562.845" y1="1213.785" x2="479.752" y2="1153.415"/>
<line x1="1369.527" y1="581.578" x2="1286.434" y2="641.948"/>
<line x1="1369.527" y1="581.578" x2="1183.725" y2="325.844"/>
<line x1="1369.527" y1="581.578" x2="1235.080" y2="483.896"/>
<line x1="1369.527" y1="581.578" x2="1337.788" y2="679.259"/>
<line x1="1369.527" y1="581.578" x2="1452.619" y2="837.311"/>
<line x1="1164.110" y1="1213.785" x2="1081.017" y2="1274.156"/>
<line x1="1164.110" y1="1213.785" x2="978.309" y2="958.052"/>
<line x1="1164.110" y1="1213.785" x2="1029.663" y2="1116.104"/>
<line x1="1164.110" y1="1213.785" x2="1132.371" y2="1311.467"/>
<line x1="1164.110" y1="1213.785" x2="1349.911" y2="1153.415"/>
<line x1="704.784" y1="581.578" x2="621.691" y2="641.948"/>
<line x1="704.784" y1="581.578" x2="518.983" y2="325.844"/>
<line x1="704.784" y1="581.578" x2="570.337" y2="483.896"/>
<line x1="704.784" y1="581.578" x2="1005.417" y2="679.259"/>
<line x1="704.784" y1="581.578" x2="787.877" y2="837.311"/>
<line x1="499.367" y1="1213.785" x2="416.275" y2="1274.156"/>
<line x1="499.367" y1="1213.785" x2="313.566" y2="958.052"/>
<line x1="499.367" y1="1213.785" x2="364.920" y2="1116.104"/>
<line x1="499.367" y1="1213.785" x2="800.000" y2="1311.467"/>
<line x1="499.367" y1="1213.785" x2="685.169" y2="1153.415"/>
<line x1="1100.633" y1="386.215" x2="1286.434" y2="641.948"/>
<line x1="1100.633" y1="386.215" x2="1183.725" y2="325.844"/>
<line x1="1100.633" y1="386.215" x2="1235.080" y2="483.896"/>
<line x1="1100.633" y1="386.215" x2="800.000" y2="288.533"/>
<line x1="1100.633" y1="386.215" x2="914.831" y2="446.585"/>
<line x1="895.216" y1="1018.422" x2="1081.017" y2="1274.156"/>
<line x1="895.216" y1="1018.422" x2="978.309" y2="958.052"/>
<line x1="895.216" y1="1018.422" x2="1029.663" y2="1116.104"/>
<line x1="895.216" y1="1018.422" x2="594.583" y2="920.741"/>
<line x1="895.216" y1="1018.422" x2="812.123" y2="762.689"/>
<line x1="435.890" y1="386.215" x2="621.691" y2="641.948"/>
<line x1="435.890" y1="386.215" x2="518.983" y2="325.844"/>
<line x1="435.890" y1="386.215" x2="570.337" y2="483.896"/>
<line x1="435.890" y1="386.215" x2="467.629" y2="288.533"/>
<line x1="435.890" y1="386.215" x2="250.089" y2="446.585"/>
<line x1="230.473" y1="1018.422" x2="416.275" y2="1274.156"/>
<line x1="230.473" y1="1018.422" x2="313.566" y2="958.052"/>
<line x1="230.473" y1="1018.422" x2="364.920" y2="1116.104"/>
<line x1="230.473" y1="1018.422" x2="262.212" y2="920.741"/>
<line x1="230.473" y1="1018.422" x2="147.381" y2="762.689"/>
<line x1="1286.434" y1="641.948" x2="1235.080" y2="483.896"/>
<line x1="1286.434" y1="641.948" x2="1171.602" y2="800.000"/>
<line x1="1286.434" y1="641.948" x2="1286.434" y2="958.052"/>
<line x1="1081.017" y1="1274.156" x2="1029.663" y2="1116.104"/>
<line x1="1081.017" y1="1274.156" x2="966.186" y2="1432.208"/>
<line x1="1081.017" y1="1274.156" x2="1183.725" y2="1274.156"/>
<line x1="621.691" y1="641.948" x2="570.337" y2="483.896"/>
<line x1="621.691" y1="641.948" x2="839.231" y2="800.000"/>
<line x1="621.691" y1="641.948" x2="621.691" y2="958.052"/>
<line x1="416.275" y1="1274.156" x2="364.920" y2="1116.104"/>
<line x1="416.275" y1="1274.156" x2="633.814" y2="1432.208"/>
<line x1="416.275" y1="1274.156" x2="518.983" y2="1274.156"/>
<line x1="1183.725" y1="325.844" x2="1235.080" y2="483.896"/>
<line x1="1183.725" y1="325.844" x2="966.186" y2="167.792"/>
<line x1="1183.725" y1="325.844" x2="1081.017" y2="325.844"/>
<line x1="978.309" y1="958.052" x2="1029.663" y2="1116.104"/>
<line x1="978.309" y1="958.052" x2="760.769" y2="800.000"/>
<line x1="978.309" y1="958.052" x2="978.309" y2="641.948"/>
<line x1="518.983" y1="325.844" x2="570.337" y2="483.896"/>
<line x1="518.983" y1="325.844" x2="633.814" y2="167.792"/>
<line x1="518.983" y1="325.844" x2="416.275" y2="325.844"/>
<line x1="313.566" y1="958.052" x2="364.920" y2="1116.104"/>
<line x1="313.566" y1="958.052" x2="428.398" y2="800.000"/>
<line x1="313.566" y1="958.052" x2="313.566" y2="641.948"/>
<line x1="1235.080" y1="483.896" x2="1068.894" y2="483.896"/>
<line x1="1235.080" y1="483.896" x2="1183.725" y2="641.948"/>
<line x1="1029.663" y1="1116.104" x2="863.477" y2="1116.104"/>
<line x1="1029.663" y1="1116.104" x2="1081.017" y2="958.052"/>
<line x1="570.337" y1="483.896" x2="736.523" y2="483.896"/>
<line x1="570.337" y1="483.896" x2="518.983" y2="641.948"/>
<line x1="364.920" y1="1116.104" x2="531.106" y2="1116.104"/>
<line x1="364.920" y1="1116.104" x2="416.275" y2="958.052"/>
<line x1="1337.788" y1="679.259" x2="1222.957" y2="837.311"/>
<line x1="1337.788" y1="679.259" x2="1120.248" y2="521.207"/>
<line x1="1337.788" y1="679.259" x2="1171.602" y2="679.259"/>
<line x1="1337.788" y1="679.259" x2="1452.619" y2="837.311"/>
<line x1="1132.371" y1="1311.467" x2="1017.540" y2="1469.519"/>
<line x1="1132.371" y1="1311.467" x2="914.831" y2="1153.415"/>
<line x1="1132.371" y1="1311.467" x2="966.186" y2="1311.467"/>
<line x1="1132.371" y1="1311.467" x2="1349.911" y2="1153.415"/>
<line x1="1005.417" y1="679.259" x2="1222.957" y2="837.311"/>
<line x1="1005.417" y1="679.259" x2="1120.248" y2="521.207"/>
<line x1="1005.417" y1="679.259" x2="1171.602" y2="679.259"/>
<line x1="1005.417" y1="679.259" x2="787.877" y2="837.311"/>
<line x1="800.000" y1="1311.467" x2="1017.540" y2="1469.519"/>
<line x1="800.000" y1="1311.467" x2="914.831" y2="1153.415"/>
<line x1="800.000" y1="1311.467" x2="966.186" y2="1311.467"/>
<line x1="800.000" y1="1311.467" x2="685.169" y2="1153.415"/>
<line x1="800.000" y1="288.533" x2="685.169" y2="446.585"/>
<line x1="800.000" y1="288.533" x2="582.460" y2="130.481"/>
<line x1="800.000" y1="288.533" x2="633.814" y2="288.533"/>
<line x1="800.000" y1="288.533" x2="914.831" y2="446.585"/>
<line x1="594.583" y1="920.741" x2="479.752" y2="1078.793"/>
<line x1="594.583" y1="920.741" x2="377.043" y2="762.689"/>
<line x1="594.583" y1="920.741" x2="428.398" y2="920.741"/>
<line x1="594.583" y1="920.741" x2="812.123" y2="762.689"/>
<line x1="467.629" y1="288.533" x2="685.169" y2="446.585"/>
<line x1="467.629" y1="288.533" x2="582.460" y2="130.481"/>
<line x1="467.629" y1="288.533" x2="633.814" y2="288.533"/>
<line x1="467.629" y1="288.533" x2="250.089" y2="446.585"/>
<line x1="262.212" y1="920.741" x2="479.752" y2="1078.793"/>
<line x1="262.212" y1="920.741" x2="377.043" y2="762.689"/>
<line x1="262.212" y1="920.741" x2="428.398" y2="920.741"/>
<line x1="262.212" y1="920.741" x2="147.381" y2="762.689"/>
<line x1="1171.602" y1="800.000" x2="1139.864" y2="897.681"/>
<line x1="1171.602" y1="800.000" x2="870.970" y2="702.319"/>
<line x1="1171.602" y1="800.000" x2="1005.417" y2="800.000"/>
<line x1="1171.602" y1="800.000" x2="1286.434" y2="958.052"/>
<line x1="966.186" y1="1432.208" x2="934.447" y2="1529.889"/>
<line x1="966.186" y1="1432.208" x2="665.553" y2="1334.526"/>
<line x1="966.186" y1="1432.208" x2="800.000" y2="1432.208"/>
<line x1="966.186" y1="1432.208" x2="1183.725" y2="1274.156"/>
<line x1="839.231" y1="800.000" x2="1139.864" y2="897.681"/>
<line x1="839.231" y1="800.000" x2="870.970" y2="702.319"/>
<line x1="839.231" y1="800.000" x2="1005.417" y2="800.000"/>
<line x1="839.231" y1="800.000" x2="621.691" y2="958.052"/>
<line x1="633.814" y1="1432.208" x2="934.447" y2="1529.889"/>
<line x1="633.814" y1="1432.208" x2="665.553" y2="1334.526"/>
<line x1="633.814" y1="1432.208" x2="800.000" y2="1432.208"/>
<line x1="633.814" y1="1432.208" x2="518.983" y2="1274.156"/>
<line x1="966.186" y1="167.792" x2="934.447" y2="265.474"/>
<line x1="966.186" y1="167.792" x2="665.553" y2="70.111"/>
<line x1="966.186" y1="167.792" x2="800.000" y2="167.792"/>
<line x1="966.186" y1="167.792" x2="1081.017" y2="325.844"/>
<line x1="760.769" y1="800.000" x2="729.030" y2="897.681"/>
<line x1="760.769" y1="800.000" x2="460.136" y2="702.319"/>
<line x1="760.769" y1="800.000" x2="594.583" y2="800.000"/>
<line x1="760.769" y1="800.000" x2="978.309" y2="641.948"/>
<line x1="633.814" y1="167.792" x2="934.447" y2="265.474"/>
<line x1="633.814" y1="167.792" x2="665.553" y2="70.111"/>
<line x1="633.814" y1="167.792" x2="800.000" y2="167.792"/>
<line x1="633.814" y1="167.792" x2="416.275" y2="325.844"/>
<line x1="428.398" y1="800.000" x2="729.030" y2="897.681"/>
<line x1="428.398" y1="800.000" x2="460.136" y2="702.319"/>
<line x1="428.398" y1="800.000" x2="594.583" y2="800.000"/>
<line x1="428.398" y1="800.000" x2="313.566" y2="641.948"/>
<line x1="1068.894" y1="483.896" x2="1037.155" y2="581.578"/>
<line x1="1068.894" y1="483.896" x2="768.261" y2="386.215"/>
<line x1="1068.894" y1="483.896" x2="954.063" y2="641.948"/>
<line x1="1068.894" y1="483.896" x2="851.354" y2="325.844"/>
<line x1="1068.894" y1="483.896" x2="1183.725" y2="641.948"/>
<line x1="863.477" y1="1116.104" x2="831.739" y2="1213.785"/>
<line x1="863.477" y1="1116.104" x2="562.845" y2="1018.422"/>
<line x1="863.477" y1="1116.104" x2="748.646" y2="1274.156"/>
<line x1="863.477" y1="1116.104" x2="645.937" y2="958.052"/>
<line x1="863.477" y1="1116.104" x2="1081.017" y2="958.052"/>
<line x1="736.523" y1="483.896" x2="1037.155" y2="581.578"/>
<line x1="736.523" y1="483.896" x2="768.261" y2="386.215"/>
<line x1="736.523" y1="483.896" x2="954.063" y2="641.948"/>
<line x1="736.523" y1="483.896" x2="851.354" y2="325.844"/>
<line x1="736.523" y1="483.896" x2="518.983" y2="641.948"/>
<line x1="531.106" y1="1116.104" x2="831.739" y2="1213.785"/>
<line x1="531.106" y1="1116.104" x2="562.845" y2="1018.422"/>
<line x1="531.106" y1="1116.104" x2="748.646" y2="1274.156"/>
<line x1="531.106" y1="1116.104" x2="645.937" y2="958.052"/>
<line x1="531.106" y1="1116.104" x2="416.275" y2="958.052"/>
<line x1="1222.957" y1="837.311" x2="1171.602" y2="679.259"/>
<line x1="1222.957" y1="837.311" x2="1139.864" y2="897.681"/>
<line x1="1222.957" y1="837.311" x2="1222.957" y2="1153.415"/>
<line x1="1017.540" y1="1469.519" x2="966.186" y2="1311.467"/>
<line x1="1017.540" y1="1469.519" x2="934.447" y2="1529.889"/>
<line x1="1017.540" y1="1469.519" x2="1120.248" y2="1469.519"/>
<line x1="685.169" y1="446.585" x2="633.814" y2="288.533"/>
<line x1="685.169" y1="446.585" x2="870.970" y2="702.319"/>
<line x1="685.169" y1="446.585" x2="685.169" y2="762.689"/>
<line x1="479.752" y1="1078.793" x2="428.398" y2="920.741"/>
<line x1="479.752" y1="1078.793" x2="665.553" y2="1334.526"/>
<line x1="479.752" y1="1078.793" x2="582.460" y2="1078.793"/>
<line x1="1120.248" y1="521.207" x2="1171.602" y2="679.259"/>
<line x1="1120.248" y1="521.207" x2="934.447" y2="265.474"/>
<line x1="1120.248" y1="521.207" x2="1017.540" y2="521.207"/>
<line x1="914.831" y1="1153.415" x2="966.186" y2="1311.467"/>
<line x1="914.831" y1="1153.415" x2="729.030" y2="897.681"/>
<line x1="914.831" y1="1153.415" x2="914.831" y2="837.311"/>
<line x1="582.460" y1="130.481" x2="633.814" y2="288.533"/>
<line x1="582.460" y1="130.481" x2="665.553" y2="70.111"/>
<line x1="582.460" y1="130.481" x2="479.752" y2="130.481"/>
<line x1="377.043" y1="762.689" x2="428.398" y2="920.741"/>
<line x1="377.043" y1="762.689" x2="460.136" y2="702.319"/>
<line x1="377.043" y1="762.689" x2="377.043" y2="446.585"/>
<line x1="1171.602" y1="679.259" x2="1037.155" y2="581.578"/>
<line x1="1171.602" y1="679.259" x2="1120.248" y2="837.311"/>
<line x1="966.186" y1="1311.467" x2="831.739" y2="1213.785"/>
<line x1="966.186" y1="1311.467" x2="1017.540" y2="1153.415"/>
<line x1="633.814" y1="288.533" x2="768.261" y2="386.215"/>
<line x1="633.814" y1="288.533" x2="582.460" y2="446.585"/>
<line x1="428.398" y1="920.741" x2="562.845" y2="1018.422"/>
<line x1="428.398" y1="920.741" x2="479.752" y2="762.689"/>
<line x1="1139.864" y1="897.681" x2="1005.417" y2="800.000"/>
<line x1="1139.864" y1="897.681" x2="1222.957" y2="1153.415"/>
<line x1="934.447" y1="1529.889" x2="800.000" y2="1432.208"/>
<line x1="934.447" y1="1529.889" x2="1120.248" y2="1469.519"/>
<line x1="870.970" y1="702.319" x2="1005.417" y2="800.000"/>
<line x1="870.970" y1="702.319" x2="685.169" y2="762.689"/>
<line x1="665.553" y1="1334.526" x2="800.000" y2="1432.208"/>
<line x1="665.553" y1="1334.526" x2="582.460" y2="1078.793"/>
<line x1="934.447" y1="265.474" x2="800.000" y2="167.792"/>
<line x1="934.447" y1="265.474" x2="1017.540" y2="521.207"/>
<line x1="729.030" y1="897.681" x2="594.583" y2="800.000"/>
<line x1="729.030" y1="897.681" x2="914.831" y2="837.311"/>
<line x1="665.553" y1="70.111" x2="800.000" y2="167.792"/>
<line x1="665.553" y1="70.111" x2="479.752" y2="130.481"/>
<line x1="460.136" y1="702.319" x2="594.583" y2="800.000"/>
<line x1="460.136" y1="702.319" x2="377.043" y2="446.585"/>
<line x1="1037.155" y1="581.578" x2="954.063" y2="641.948"/>
<line x1="1037.155" y1="581.578" x2="851.354" y2="325.844"/>
<line x1="1037.155" y1="581.578" x2="1120.248" y2="837.311"/>
<line x1="831.739" y1="1213.785" x2="748.646" y2="1274.156"/>
<line x1="831.739" y1="1213.785" x2="645.937" y2="958.052"/>
<line x1="831.739" y1="1213.785" x2="1017.540" y2="1153.415"/>
<line x1="768.261" y1="386.215" x2="954.063" y2="641.948"/>
<line x1="768.261" y1="386.215" x2="851.354" y2="325.844"/>
<line x1="768.261" y1="386.215" x2="582.460" y2="446.585"/>
<line x1="562.845" y1="1018.422" x2="748.646" y2="1274.156"/>
<line x1="562.845" y1="1018.422" x2="645.937" y2="958.052"/>
<line x1="562.845" y1="1018.422" x2="479.752" y2="762.689"/>
<line x1="1005.417" y1="800.000" x2="954.063" y2="641.948"/>
<line x1="1005.417" y1="800.000" x2="954.063" y2="958.052"/>
<line x1="800.000" y1="1432.208" x2="748.646" y2="1274.156"/>
<line x1="800.000" y1="1432.208" x2="851.354" y2="1274.156"/>
<line x1="800.000" y1="167.792" x2="851.354" y2="325.844"/>
<line x1="800.000" y1="167.792" x2="748.646" y2="325.844"/>
<line x1="594.583" y1="800.000" x2="645.937" y2="958.052"/>
<line x1="594.583" y1="800.000" x2="645.937" y2="641.948"/>
<line x1="954.063" y1="641.948" x2="954.063" y2="958.052"/>
<line x1="748.646" y1="1274.156" x2="851.354" y2="1274.156"/>
<line x1="851.354" y1="325.844" x2="748.646" y2="325.844"/>
<line x1="645.937" y1="958.052" x2="645.937" y2="641.948"/>
<line x1="1452.619" y1="446.585" x2="1535.712" y2="702.319"/>
<line x1="1452.619" y1="446.585" x2="1266.818" y2="506.956"/>
<line x1="1452.619" y1="446.585" x2="1452.619" y2="762.689"/>
<line x1="1452.619" y1="446.585" x2="1349.911" y2="446.585"/>
<line x1="1452.619" y1="446.585" x2="1401.265" y2="604.637"/>
<line x1="1349.911" y1="762.689" x2="1535.712" y2="702.319"/>
<line x1="1349.911" y1="762.689" x2="1266.818" y2="506.956"/>
<line x1="1349.911" y1="762.689" x2="1452.619" y2="762.689"/>
<line x1="1349.911" y1="762.689" x2="1349.911" y2="446.585"/>
<line x1="1349.911" y1="762.689" x2="1401.265" y2="604.637"/>
<line x1="914.831" y1="837.311" x2="997.924" y2="1093.044"/>
<line x1="914.831" y1="837.311" x2="812.123" y2="837.311"/>
<line x1="914.831" y1="837.311" x2="863.477" y2="995.363"/>
<line x1="812.123" y1="1153.415" x2="997.924" y2="1093.044"/>
<line x1="812.123" y1="1153.415" x2="729.030" y2="897.681"/>
<line x1="812.123" y1="1153.415" x2="914.831" y2="1153.415"/>
<line x1="812.123" y1="1153.415" x2="812.123" y2="837.311"/>
<line x1="812.123" y1="1153.415" x2="863.477" y2="995.363"/>
<line x1="787.877" y1="446.585" x2="870.970" y2="702.319"/>
<line x1="787.877" y1="446.585" x2="602.076" y2="506.956"/>
<line x1="787.877" y1="446.585" x2="787.877" y2="762.689"/>
<line x1="787.877" y1="446.585" x2="685.169" y2="446.585"/>
<line x1="787.877" y1="446.585" x2="736.523" y2="604.637"/>
<line x1="685.169" y1="762.689" x2="602.076" y2="506.956"/>
<line x1="685.169" y1="762.689" x2="787.877" y2="762.689"/>
<line x1="685.169" y1="762.689" x2="736.523" y2="604.637"/>
<line x1="250.089" y1="837.311" x2="333.182" y2="1093.044"/>
<line x1="250.089" y1="837.311" x2="64.288" y2="897.681"/>
<line x1="250.089" y1="837.311" x2="250.089" y2="1153.415"/>
<line x1="250.089" y1="837.311" x2="147.381" y2="837.311"/>
<line x1="250.089" y1="837.311" x2="198.735" y2="995.363"/>
<line x1="147.381" y1="1153.415" x2="333.182" y2="1093.044"/>
<line x1="147.381" y1="1153.415" x2="64.288" y2="897.681"/>
<line x1="147.381" y1="1153.415" x2="250.089" y2="1153.415"/>
<line x1="147.381" y1="1153.415" x2="147.381" y2="837.311"/>
<line x1="147.381" y1="1153.415" x2="198.735" y2="995.363"/>
<line x1="1389.142" y1="641.948" x2="1503.974" y2="800.000"/>
<line x1="1389.142" y1="641.948" x2="1171.602" y2="800.000"/>
<line x1="1389.142" y1="641.948" x2="1389.142" y2="958.052"/>
<line x1="1389.142" y1="641.948" x2="1286.434" y2="641.948"/>
<line x1="1389.142" y1="641.948" x2="1337.788" y2="800.000"/>
<line x1="1286.434" y1="958.052" x2="1503.974" y2="800.000"/>
<line x1="1286.434" y1="958.052" x2="1389.142" y2="958.052"/>
<line x1="1286.434" y1="958.052" x2="1337.788" y2="800.000"/>
<line x1="851.354" y1="1032.674" x2="966.186" y2="1190.726"/>
<line x1="851.354" y1="1032.674" x2="633.814" y2="1190.726"/>
<line x1="851.354" y1="1032.674" x2="851.354" y2="1348.778"/>
<line x1="851.354" y1="1032.674" x2="748.646" y2="1032.674"/>
<line x1="851.354" y1="1032.674" x2="800.000" y2="1190.726"/>
<line x1="748.646" y1="1348.778" x2="966.186" y2="1190.726"/>
<line x1="748.646" y1="1348.778" x2="633.814" y2="1190.726"/>
<line x1="748.646" y1="1348.778" x2="851.354" y2="1348.778"/>
<line x1="748.646" y1="1348.778" x2="748.646" y2="1032.674"/>
<line x1="748.646" y1="1348.778" x2="800.000" y2="1190.726"/>
<line x1="851.354" y1="251.222" x2="966.186" y2="409.274"/>
<line x1="851.354" y1="251.222" x2="633.814" y2="409.274"/>
<line x1="851.354" y1="251.222" x2="851.354" y2="567.326"/>
<line x1="851.354" y1="251.222" x2="748.646" y2="251.222"/>
<line x1="851.354" y1="251.222" x2="800.000" y2="409.274"/>
<line x1="748.646" y1="567.326" x2="966.186" y2="409.274"/>
<line x1="748.646" y1="567.326" x2="633.814" y2="409.274"/>
<line x1="748.646" y1="567.326" x2="851.354" y2="567.326"/>
<line x1="748.646" y1="567.326" x2="748.646" y2="251.222"/>
<line x1="748.646" y1="567.326" x2="800.000" y2="409.274"/>
<line x1="313.566" y1="641.948" x2="96.026" y2="800.000"/>
<line x1="313.566" y1="641.948" x2="210.858" y2="641.948"/>
<line x1="313.566" y1="641.948" x2="262.212" y2="800.000"/>
<line x1="210.858" y1="958.052" x2="428.398" y2="800.000"/>
<line x1="210.858" y1="958.052" x2="96.026" y2="800.000"/>
<line x1="210.858" y1="958.052" x2="313.566" y2="958.052"/>
<line x1="210.858" y1="958.052" x2="210.858" y2="641.948"/>
<line x1="210.858" y1="958.052" x2="262.212" y2="800.000"/>
<line x1="1222.957" y1="762.689" x2="1337.788" y2="920.741"/>
<line x1="1222.957" y1="762.689" x2="1005.417" y2="920.741"/>
<line x1="1222.957" y1="762.689" x2="1306.049" y2="1018.422"/>
<line x1="1222.957" y1="762.689" x2="1037.155" y2="823.059"/>
<line x1="1222.957" y1="762.689" x2="1171.602" y2="920.741"/>
<line x1="1120.248" y1="1078.793" x2="1337.788" y2="920.741"/>
<line x1="1120.248" y1="1078.793" x2="1005.417" y2="920.741"/>
<line x1="1120.248" y1="1078.793" x2="1306.049" y2="1018.422"/>
<line x1="1120.248" y1="1078.793" x2="1037.155" y2="823.059"/>
<line x1="1120.248" y1="1078.793" x2="1171.602" y2="920.741"/>
<line x1="685.169" y1="1153.415" x2="467.629" y2="1311.467"/>
<line x1="685.169" y1="1153.415" x2="768.261" y2="1409.148"/>
<line x1="685.169" y1="1153.415" x2="633.814" y2="1311.467"/>
<line x1="582.460" y1="1469.519" x2="800.000" y2="1311.467"/>
<line x1="582.460" y1="1469.519" x2="467.629" y2="1311.467"/>
<line x1="582.460" y1="1469.519" x2="768.261" y2="1409.148"/>
<line x1="582.460" y1="1469.519" x2="499.367" y2="1213.785"/>
<line x1="582.460" y1="1469.519" x2="633.814" y2="1311.467"/>
<line x1="1017.540" y1="130.481" x2="1132.371" y2="288.533"/>
<line x1="1017.540" y1="130.481" x2="800.000" y2="288.533"/>
<line x1="1017.540" y1="130.481" x2="1100.633" y2="386.215"/>
<line x1="1017.540" y1="130.481" x2="831.739" y2="190.852"/>
<line x1="1017.540" y1="130.481" x2="966.186" y2="288.533"/>
<line x1="914.831" y1="446.585" x2="1132.371" y2="288.533"/>
<line x1="914.831" y1="446.585" x2="831.739" y2="190.852"/>
<line x1="914.831" y1="446.585" x2="966.186" y2="288.533"/>
<line x1="479.752" y1="521.207" x2="594.583" y2="679.259"/>
<line x1="479.752" y1="521.207" x2="262.212" y2="679.259"/>
<line x1="479.752" y1="521.207" x2="562.845" y2="776.941"/>
<line x1="479.752" y1="521.207" x2="293.951" y2="581.578"/>
<line x1="479.752" y1="521.207" x2="428.398" y2="679.259"/>
<line x1="377.043" y1="837.311" x2="594.583" y2="679.259"/>
<line x1="377.043" y1="837.311" x2="262.212" y2="679.259"/>
<line x1="377.043" y1="837.311" x2="562.845" y2="776.941"/>
<line x1="377.043" y1="837.311" x2="293.951" y2="581.578"/>
<line x1="377.043" y1="837.311" x2="428.398" y2="679.259"/>
<line x1="1120.248" y1="446.585" x2="1235.080" y2="604.637"/>
<line x1="1120.248" y1="446.585" x2="902.708" y2="604.637"/>
<line x1="1120.248" y1="446.585" x2="1203.341" y2="702.319"/>
<line x1="1120.248" y1="446.585" x2="934.447" y2="506.956"/>
<line x1="1120.248" y1="446.585" x2="1120.248" y2="762.689"/>
<line x1="1120.248" y1="446.585" x2="1017.540" y2="446.585"/>
<line x1="1017.540" y1="762.689" x2="1235.080" y2="604.637"/>
<line x1="1017.540" y1="762.689" x2="902.708" y2="604.637"/>
<line x1="1017.540" y1="762.689" x2="1203.341" y2="702.319"/>
<line x1="1017.540" y1="762.689" x2="934.447" y2="506.956"/>
<line x1="1017.540" y1="762.689" x2="1120.248" y2="762.689"/>
<line x1="1017.540" y1="762.689" x2="1017.540" y2="446.585"/>
<line x1="582.460" y1="837.311" x2="697.292" y2="995.363"/>
<line x1="582.460" y1="837.311" x2="364.920" y2="995.363"/>
<line x1="582.460" y1="837.311" x2="665.553" y2="1093.044"/>
<line x1="582.460" y1="837.311" x2="396.659" y2="897.681"/>
<line x1="582.460" y1="837.311" x2="582.460" y2="1153.415"/>
<line x1="582.460" y1="837.311" x2="479.752" y2="837.311"/>
<line x1="479.752" y1="1153.415" x2="697.292" y2="995.363"/>
<line x1="479.752" y1="1153.415" x2="364.920" y2="995.363"/>
<line x1="479.752" y1="1153.415" x2="665.553" y2="1093.044"/>
<line x1="479.752" y1="1153.415" x2="396.659" y2="897.681"/>
<line x1="479.752" y1="1153.415" x2="582.460" y2="1153.415"/>
<line x1="479.752" y1="1153.415" x2="479.752" y2="837.311"/>
<line x1="1452.619" y1="837.311" x2="1535.712" y2="897.681"/>
<line x1="1452.619" y1="837.311" x2="1266.818" y2="1093.044"/>
<line x1="1452.619" y1="837.311" x2="1452.619" y2="1153.415"/>
<line x1="1452.619" y1="837.311" x2="1349.911" y2="837.311"/>
<line x1="1452.619" y1="837.311" x2="1401.265" y2="995.363"/>
<line x1="1349.911" y1="1153.415" x2="1535.712" y2="897.681"/>
<line x1="1349.911" y1="1153.415" x2="1266.818" y2="1093.044"/>
<line x1="1349.911" y1="1153.415" x2="1452.619" y2="1153.415"/>
<line x1="1349.911" y1="1153.415" x2="1349.911" y2="837.311"/>
<line x1="1349.911" y1="1153.415" x2="1401.265" y2="995.363"/>
<line x1="787.877" y1="837.311" x2="870.970" y2="897.681"/>
<line x1="787.877" y1="837.311" x2="602.076" y2="1093.044"/>
<line x1="787.877" y1="837.311" x2="787.877" y2="1153.415"/>
<line x1="787.877" y1="837.311" x2="685.169" y2="837.311"/>
<line x1="787.877" y1="837.311" x2="736.523" y2="995.363"/>
<line x1="685.169" y1="1153.415" x2="602.076" y2="1093.044"/>
<line x1="685.169" y1="1153.415" x2="787.877" y2="1153.415"/>
<line x1="685.169" y1="1153.415" x2="736.523" y2="995.363"/>
<line x1="914.831" y1="446.585" x2="997.924" y2="506.956"/>
<line x1="914.831" y1="446.585" x2="812.123" y2="446.585"/>
<line x1="914.831" y1="446.585" x2="863.477" y2="604.637"/>
<line x1="812.123" y1="762.689" x2="997.924" y2="506.956"/>
<line x1="812.123" y1="762.689" x2="729.030" y2="702.319"/>
<line x1="812.123" y1="762.689" x2="914.831" y2="762.689"/>
<line x1="812.123" y1="762.689" x2="812.123" y2="446.585"/>
<line x1="812.123" y1="762.689" x2="863.477" y2="604.637"/>
<line x1="250.089" y1="446.585" x2="333.182" y2="506.956"/>
<line x1="250.089" y1="446.585" x2="64.288" y2="702.319"/>
<line x1="250.089" y1="446.585" x2="250.089" y2="762.689"/>
<line x1="250.089" y1="446.585" x2="147.381" y2="446.585"/>
<line x1="250.089" y1="446.585" x2="198.735" y2="604.637"/>
<line x1="147.381" y1="762.689" x2="333.182" y2="506.956"/>
<line x1="147.381" y1="762.689" x2="64.288" y2="702.319"/>
<line x1="147.381" y1="762.689" x2="250.089" y2="762.689"/>
<line x1="147.381" y1="762.689" x2="147.381" y2="446.585"/>
<line x1="147.381" y1="762.689" x2="198.735" y2="604.637"/>
<line x1="1286.434" y1="958.052" x2="1369.527" y2="1018.422"/>
<line x1="1286.434" y1="958.052" x2="1369.527" y2="1213.785"/>
<line x1="1286.434" y1="958.052" x2="1235.080" y2="1116.104"/>
<line x1="1183.725" y1="1274.156" x2="1369.527" y2="1018.422"/>
<line x1="1183.725" y1="1274.156" x2="1100.633" y2="1213.785"/>
<line x1="1183.725" y1="1274.156" x2="1369.527" y2="1213.785"/>
<line x1="1183.725" y1="1274.156" x2="1100.633" y2="1018.422"/>
<line x1="1183.725" y1="1274.156" x2="1235.080" y2="1116.104"/>
<line x1="621.691" y1="958.052" x2="704.784" y2="1018.422"/>
<line x1="621.691" y1="958.052" x2="435.890" y2="1213.785"/>
<line x1="621.691" y1="958.052" x2="704.784" y2="1213.785"/>
<line x1="621.691" y1="958.052" x2="435.890" y2="1018.422"/>
<line x1="621.691" y1="958.052" x2="570.337" y2="1116.104"/>
<line x1="518.983" y1="1274.156" x2="704.784" y2="1018.422"/>
<line x1="518.983" y1="1274.156" x2="435.890" y2="1213.785"/>
<line x1="518.983" y1="1274.156" x2="704.784" y2="1213.785"/>
<line x1="518.983" y1="1274.156" x2="435.890" y2="1018.422"/>
<line x1="518.983" y1="1274.156" x2="570.337" y2="1116.104"/>
<line x1="1081.017" y1="325.844" x2="1164.110" y2="386.215"/>
<line x1="1081.017" y1="325.844" x2="895.216" y2="581.578"/>
<line x1="1081.017" y1="325.844" x2="1164.110" y2="581.578"/>
<line x1="1081.017" y1="325.844" x2="895.216" y2="386.215"/>
<line x1="1081.017" y1="325.844" x2="1029.663" y2="483.896"/>
<line x1="978.309" y1="641.948" x2="1164.110" y2="386.215"/>
<line x1="978.309" y1="641.948" x2="895.216" y2="581.578"/>
<line x1="978.309" y1="641.948" x2="1164.110" y2="581.578"/>
<line x1="978.309" y1="641.948" x2="895.216" y2="386.215"/>
<line x1="978.309" y1="641.948" x2="1029.663" y2="483.896"/>
<line x1="416.275" y1="325.844" x2="499.367" y2="386.215"/>
<line x1="416.275" y1="325.844" x2="230.473" y2="581.578"/>
<line x1="416.275" y1="325.844" x2="499.367" y2="581.578"/>
<line x1="416.275" y1="325.844" x2="230.473" y2="386.215"/>
<line x1="416.275" y1="325.844" x2="364.920" y2="483.896"/>
<line x1="313.566" y1="641.948" x2="230.473" y2="581.578"/>
<line x1="313.566" y1="641.948" x2="230.473" y2="386.215"/>
<line x1="313.566" y1="641.948" x2="364.920" y2="483.896"/>
<line x1="1183.725" y1="641.948" x2="1266.818" y2="702.319"/>
<line x1="1183.725" y1="641.948" x2="997.924" y2="897.681"/>
<line x1="1183.725" y1="641.948" x2="1266.818" y2="897.681"/>
<line x1="1183.725" y1="641.948" x2="997.924" y2="702.319"/>
<line x1="1183.725" y1="641.948" x2="1183.725" y2="958.052"/>
<line x1="1183.725" y1="641.948" x2="1081.017" y2="641.948"/>
<line x1="1081.017" y1="958.052" x2="1266.818" y2="702.319"/>
<line x1="1081.017" y1="958.052" x2="997.924" y2="897.681"/>
<line x1="1081.017" y1="958.052" x2="1266.818" y2="897.681"/>
<line x1="1081.017" y1="958.052" x2="997.924" y2="702.319"/>
<line x1="1081.017" y1="958.052" x2="1183.725" y2="958.052"/>
<line x1="1081.017" y1="958.052" x2="1081.017" y2="641.948"/>
<line x1="518.983" y1="641.948" x2="602.076" y2="702.319"/>
<line x1="518.983" y1="641.948" x2="333.182" y2="897.681"/>
<line x1="518.983" y1="641.948" x2="602.076" y2="897.681"/>
<line x1="518.983" y1="641.948" x2="333.182" y2="702.319"/>
<line x1="518.983" y1="641.948" x2="518.983" y2="958.052"/>
<line x1="518.983" y1="641.948" x2="416.275" y2="641.948"/>
<line x1="416.275" y1="958.052" x2="602.076" y2="702.319"/>
<line x1="416.275" y1="958.052" x2="333.182" y2="897.681"/>
<line x1="416.275" y1="958.052" x2="602.076" y2="897.681"/>
<line x1="416.275" y1="958.052" x2="333.182" y2="702.319"/>
<line x1="416.275" y1="958.052" x2="518.983" y2="958.052"/>
<line x1="416.275" y1="958.052" x2="416.275" y2="641.948"/>
<line x1="1222.957" y1="1153.415" x2="1306.049" y2="1213.785"/>
<line x1="1222.957" y1="1153.415" x2="1037.155" y2="1409.148"/>
<line x1="1222.957" y1="1153.415" x2="1337.788" y2="1311.467"/>
<line x1="1222.957" y1="1153.415" x2="1005.417" y2="1311.467"/>
<line x1="1222.957" y1="1153.415" x2="1171.602" y2="1311.467"/>
<line x1="1120.248" y1="1469.519" x2="1306.049" y2="1213.785"/>
<line x1="1120.248" y1="1469.519" x2="1037.155" y2="1409.148"/>
<line x1="1120.248" y1="1469.519" x2="1337.788" y2="1311.467"/>
<line x1="1120.248" y1="1469.519" x2="1005.417" y2="1311.467"/>
<line x1="1120.248" y1="1469.519" x2="1171.602" y2="1311.467"/>
<line x1="685.169" y1="762.689" x2="768.261" y2="823.059"/>
<line x1="685.169" y1="762.689" x2="467.629" y2="920.741"/>
<line x1="685.169" y1="762.689" x2="633.814" y2="920.741"/>
<line x1="582.460" y1="1078.793" x2="768.261" y2="823.059"/>
<line x1="582.460" y1="1078.793" x2="499.367" y2="1018.422"/>
<line x1="582.460" y1="1078.793" x2="800.000" y2="920.741"/>
<line x1="582.460" y1="1078.793" x2="467.629" y2="920.741"/>
<line x1="582.460" y1="1078.793" x2="633.814" y2="920.741"/>
<line x1="1017.540" y1="521.207" x2="1100.633" y2="581.578"/>
<line x1="1017.540" y1="521.207" x2="831.739" y2="776.941"/>
<line x1="1017.540" y1="521.207" x2="1132.371" y2="679.259"/>
<line x1="1017.540" y1="521.207" x2="800.000" y2="679.259"/>
<line x1="1017.540" y1="521.207" x2="966.186" y2="679.259"/>
<line x1="914.831" y1="837.311" x2="831.739" y2="776.941"/>
<line x1="914.831" y1="837.311" x2="1132.371" y2="679.259"/>
<line x1="914.831" y1="837.311" x2="966.186" y2="679.259"/>
<line x1="479.752" y1="130.481" x2="562.845" y2="190.852"/>
<line x1="479.752" y1="130.481" x2="293.951" y2="386.215"/>
<line x1="479.752" y1="130.481" x2="594.583" y2="288.533"/>
<line x1="479.752" y1="130.481" x2="262.212" y2="288.533"/>
<line x1="479.752" y1="130.481" x2="428.398" y2="288.533"/>
<line x1="377.043" y1="446.585" x2="562.845" y2="190.852"/>
<line x1="377.043" y1="446.585" x2="293.951" y2="386.215"/>
<line x1="377.043" y1="446.585" x2="594.583" y2="288.533"/>
<line x1="377.043" y1="446.585" x2="262.212" y2="288.533"/>
<line x1="377.043" y1="446.585" x2="428.398" y2="288.533"/>
<line x1="1120.248" y1="837.311" x2="1203.341" y2="897.681"/>
<line x1="1120.248" y1="837.311" x2="934.447" y2="1093.044"/>
<line x1="1120.248" y1="837.311" x2="1235.080" y2="995.363"/>
<line x1="1120.248" y1="837.311" x2="902.708" y2="995.363"/>
<line x1="1120.248" y1="837.311" x2="1120.248" y2="1153.415"/>
<line x1="1120.248" y1="837.311" x2="1017.540" y2="837.311"/>
<line x1="1017.540" y1="1153.415" x2="1203.341" y2="897.681"/>
<line x1="1017.540" y1="1153.415" x2="934.447" y2="1093.044"/>
<line x1="1017.540" y1="1153.415" x2="1235.080" y2="995.363"/>
<line x1="1017.540" y1="1153.415" x2="902.708" y2="995.363"/>
<line x1="1017.540" y1="1153.415" x2="1120.248" y2="1153.415"/>
<line x1="1017.540" y1="1153.415" x2="1017.540" y2="837.311"/>
<line x1="582.460" y1="446.585" x2="665.553" y2="506.956"/>
<line x1="582.460" y1="446.585" x2="396.659" y2="702.319"/>
<line x1="582.460" y1="446.585" x2="697.292" y2="604.637"/>
<line x1="582.460" y1="446.585" x2="364.920" y2="604.637"/>
<line x1="582.460" y1="446.585" x2="582.460" y2="762.689"/>
<line x1="582.460" y1="446.585" x2="479.752" y2="446.585"/>
<line x1="479.752" y1="762.689" x2="665.553" y2="506.956"/>
<line x1="479.752" y1="762.689" x2="396.659" y2="702.319"/>
<line x1="479.752" y1="762.689" x2="697.292" y2="604.637"/>
<line x1="479.752" y1="762.689" x2="364.920" y2="604.637"/>
<line x1="479.752" y1="762.689" x2="582.460" y2="762.689"/>
<line x1="479.752" y1="762.689" x2="479.752" y2="446.585"/>
<line x1="954.063" y1="958.052" x2="1037.155" y2="1018.422"/>
<line x1="954.063" y1="958.052" x2="768.261" y2="1213.785"/>
<line x1="954.063" y1="958.052" x2="1068.894" y2="1116.104"/>
<line x1="954.063" y1="958.052" x2="736.523" y2="1116.104"/>
<line x1="954.063" y1="958.052" x2="1037.155" y2="1213.785"/>
<line x1="954.063" y1="958.052" x2="768.261" y2="1018.422"/>
<line x1="851.354" y1="1274.156" x2="1037.155" y2="1018.422"/>
<line x1="851.354" y1="1274.156" x2="768.261" y2="1213.785"/>
<line x1="851.354" y1="1274.156" x2="1068.894" y2="1116.104"/>
<line x1="851.354" y1="1274.156" x2="736.523" y2="1116.104"/>
<line x1="851.354" y1="1274.156" x2="1037.155" y2="1213.785"/>
<line x1="851.354" y1="1274.156" x2="768.261" y2="1018.422"/>
<line x1="748.646" y1="325.844" x2="831.739" y2="386.215"/>
<line x1="748.646" y1="325.844" x2="562.845" y2="581.578"/>
<line x1="748.646" y1="325.844" x2="863.477" y2="483.896"/>
<line x1="748.646" y1="325.844" x2="531.106" y2="483.896"/>
<line x1="748.646" y1="325.844" x2="831.739" y2="581.578"/>
<line x1="748.646" y1="325.844" x2="562.845" y2="386.215"/>
<line x1="645.937" y1="641.948" x2="831.739" y2="386.215"/>
<line x1="645.937" y1="641.948" x2="562.845" y2="581.578"/>
<line x1="645.937" y1="641.948" x2="863.477" y2="483.896"/>
<line x1="645.937" y1="641.948" x2="531.106" y2="483.896"/>
<line x1="645.937" y1="641.948" x2="831.739" y2="581.578"/>
<line x1="645.937" y1="641.948" x2="562.845" y2="386.215"/>
<line x1="1535.712" y1="702.319" x2="1452.619" y2="762.689"/>
<line x1="1535.712" y1="702.319" x2="1349.911" y2="446.585"/>
<line x1="1535.712" y1="702.319" x2="1401.265" y2="604.637"/>
<line x1="1535.712" y1="702.319" x2="1503.974" y2="800.000"/>
<line x1="1535.712" y1="702.319" x2="1535.712" y2="897.681"/>
<line x1="997.924" y1="1093.044" x2="914.831" y2="1153.415"/>
<line x1="997.924" y1="1093.044" x2="812.123" y2="837.311"/>
<line x1="997.924" y1="1093.044" x2="863.477" y2="995.363"/>
<line x1="997.924" y1="1093.044" x2="966.186" y2="1190.726"/>
<line x1="997.924" y1="1093.044" x2="1266.818" y2="1093.044"/>
<line x1="870.970" y1="702.319" x2="787.877" y2="762.689"/>
<line x1="870.970" y1="702.319" x2="736.523" y2="604.637"/>
<line x1="333.182" y1="1093.044" x2="250.089" y2="1153.415"/>
<line x1="333.182" y1="1093.044" x2="147.381" y2="837.311"/>
<line x1="333.182" y1="1093.044" x2="198.735" y2="995.363"/>
<line x1="333.182" y1="1093.044" x2="633.814" y2="1190.726"/>
<line x1="333.182" y1="1093.044" x2="602.076" y2="1093.044"/>
<line x1="1266.818" y1="506.956" x2="1452.619" y2="762.689"/>
<line x1="1266.818" y1="506.956" x2="1349.911" y2="446.585"/>
<line x1="1266.818" y1="506.956" x2="1401.265" y2="604.637"/>
<line x1="1266.818" y1="506.956" x2="966.186" y2="409.274"/>
<line x1="1266.818" y1="506.956" x2="997.924" y2="506.956"/>
<line x1="729.030" y1="897.681" x2="812.123" y2="837.311"/>
<line x1="729.030" y1="897.681" x2="863.477" y2="995.363"/>
<line x1="602.076" y1="506.956" x2="787.877" y2="762.689"/>
<line x1="602.076" y1="506.956" x2="685.169" y2="446.585"/>
<line x1="602.076" y1="506.956" x2="736.523" y2="604.637"/>
<line x1="602.076" y1="506.956" x2="633.814" y2="409.274"/>
<line x1="602.076" y1="506.956" x2="333.182" y2="506.956"/>
<line x1="64.288" y1="897.681" x2="250.089" y2="1153.415"/>
<line x1="64.288" y1="897.681" x2="147.381" y2="837.311"/>
<line x1="64.288" y1="897.681" x2="198.735" y2="995.363"/>
<line x1="64.288" y1="897.681" x2="96.026" y2="800.000"/>
<line x1="64.288" y1="897.681" x2="64.288" y2="702.319"/>
<line x1="1452.619" y1="762.689" x2="1401.265" y2="604.637"/>
<line x1="1452.619" y1="762.689" x2="1337.788" y2="920.741"/>
<line x1="1452.619" y1="762.689" x2="1369.527" y2="1018.422"/>
<line x1="914.831" y1="1153.415" x2="863.477" y2="995.363"/>
<line x1="787.877" y1="762.689" x2="736.523" y2="604.637"/>
<line x1="787.877" y1="762.689" x2="1005.417" y2="920.741"/>
<line x1="787.877" y1="762.689" x2="704.784" y2="1018.422"/>
<line x1="250.089" y1="1153.415" x2="198.735" y2="995.363"/>
<line x1="250.089" y1="1153.415" x2="467.629" y2="1311.467"/>
<line x1="250.089" y1="1153.415" x2="435.890" y2="1213.785"/>
<line x1="1349.911" y1="446.585" x2="1401.265" y2="604.637"/>
<line x1="1349.911" y1="446.585" x2="1132.371" y2="288.533"/>
<line x1="1349.911" y1="446.585" x2="1164.110" y2="386.215"/>
<line x1="812.123" y1="837.311" x2="863.477" y2="995.363"/>
<line x1="812.123" y1="837.311" x2="594.583" y2="679.259"/>
<line x1="812.123" y1="837.311" x2="895.216" y2="581.578"/>
<line x1="685.169" y1="446.585" x2="736.523" y2="604.637"/>
<line x1="147.381" y1="837.311" x2="198.735" y2="995.363"/>
<line x1="147.381" y1="837.311" x2="262.212" y2="679.259"/>
<line x1="147.381" y1="837.311" x2="230.473" y2="581.578"/>
<line x1="1401.265" y1="604.637" x2="1235.080" y2="604.637"/>
<line x1="1401.265" y1="604.637" x2="1266.818" y2="702.319"/>
<line x1="863.477" y1="995.363" x2="697.292" y2="995.363"/>
<line x1="863.477" y1="995.363" x2="997.924" y2="897.681"/>
<line x1="736.523" y1="604.637" x2="902.708" y2="604.637"/>
<line x1="736.523" y1="604.637" x2="602.076" y2="702.319"/>
<line x1="198.735" y1="995.363" x2="364.920" y2="995.363"/>
<line x1="198.735" y1="995.363" x2="333.182" y2="897.681"/>
<line x1="1503.974" y1="800.000" x2="1389.142" y2="958.052"/>
<line x1="1503.974" y1="800.000" x2="1286.434" y2="641.948"/>
<line x1="1503.974" y1="800.000" x2="1337.788" y2="800.000"/>
<line x1="1503.974" y1="800.000" x2="1535.712" y2="897.681"/>
<line x1="966.186" y1="1190.726" x2="851.354" y2="1348.778"/>
<line x1="966.186" y1="1190.726" x2="748.646" y2="1032.674"/>
<line x1="966.186" y1="1190.726" x2="800.000" y2="1190.726"/>
<line x1="966.186" y1="1190.726" x2="1266.818" y2="1093.044"/>
<line x1="1171.602" y1="800.000" x2="1389.142" y2="958.052"/>
<line x1="1171.602" y1="800.000" x2="1337.788" y2="800.000"/>
<line x1="633.814" y1="1190.726" x2="851.354" y2="1348.778"/>
<line x1="633.814" y1="1190.726" x2="748.646" y2="1032.674"/>
<line x1="633.814" y1="1190.726" x2="800.000" y2="1190.726"/>
<line x1="633.814" y1="1190.726" x2="602.076" y2="1093.044"/>
<line x1="966.186" y1="409.274" x2="851.354" y2="567.326"/>
<line x1="966.186" y1="409.274" x2="748.646" y2="251.222"/>
<line x1="966.186" y1="409.274" x2="800.000" y2="409.274"/>
<line x1="966.186" y1="409.274" x2="997.924" y2="506.956"/>
<line x1="428.398" y1="800.000" x2="210.858" y2="641.948"/>
<line x1="428.398" y1="800.000" x2="262.212" y2="800.000"/>
<line x1="633.814" y1="409.274" x2="851.354" y2="567.326"/>
<line x1="633.814" y1="409.274" x2="748.646" y2="251.222"/>
<line x1="633.814" y1="409.274" x2="800.000" y2="409.274"/>
<line x1="633.814" y1="409.274" x2="333.182" y2="506.956"/>
<line x1="96.026" y1="800.000" x2="313.566" y2="958.052"/>
<line x1="96.026" y1="800.000" x2="210.858" y2="641.948"/>
<line x1="96.026" y1="800.000" x2="262.212" y2="800.000"/>
<line x1="96.026" y1="800.000" x2="64.288" y2="702.319"/>
<line x1="1337.788" y1="920.741" x2="1306.049" y2="1018.422"/>
<line x1="1337.788" y1="920.741" x2="1037.155" y2="823.059"/>
<line x1="1337.788" y1="920.741" x2="1171.602" y2="920.741"/>
<line x1="1337.788" y1="920.741" x2="1369.527" y2="1018.422"/>
<line x1="800.000" y1="1311.467" x2="768.261" y2="1409.148"/>
<line x1="800.000" y1="1311.467" x2="633.814" y2="1311.467"/>
<line x1="1005.417" y1="920.741" x2="1306.049" y2="1018.422"/>
<line x1="1005.417" y1="920.741" x2="1037.155" y2="823.059"/>
<line x1="1005.417" y1="920.741" x2="1171.602" y2="920.741"/>
<line x1="1005.417" y1="920.741" x2="704.784" y2="1018.422"/>
<line x1="467.629" y1="1311.467" x2="768.261" y2="1409.148"/>
<line x1="467.629" y1="1311.467" x2="499.367" y2="1213.785"/>
<line x1="467.629" y1="1311.467" x2="633.814" y2="1311.467"/>
<line x1="467.629" y1="1311.467" x2="435.890" y2="1213.785"/>
<line x1="1132.371" y1="288.533" x2="1100.633" y2="386.215"/>
<line x1="1132.371" y1="288.533" x2="831.739" y2="190.852"/>
<line x1="1132.371" y1="288.533" x2="966.186" y2="288.533"/>
<line x1="1132.371" y1="288.533" x2="1164.110" y2="386.215"/>
<line x1="594.583" y1="679.259" x2="562.845" y2="776.941"/>
<line x1="594.583" y1="679.259" x2="293.951" y2="581.578"/>
<line x1="594.583" y1="679.259" x2="428.398" y2="679.259"/>
<line x1="594.583" y1="679.259" x2="895.216" y2="581.578"/>
<line x1="800.000" y1="288.533" x2="831.739" y2="190.852"/>
<line x1="800.000" y1="288.533" x2="966.186" y2="288.533"/>
<line x1="262.212" y1="679.259" x2="562.845" y2="776.941"/>
<line x1="262.212" y1="679.259" x2="293.951" y2="581.578"/>
<line x1="262.212" y1="679.259" x2="428.398" y2="679.259"/>
<line x1="262.212" y1="679.259" x2="230.473" y2="581.578"/>
<line x1="1235.080" y1="604.637" x2="1203.341" y2="702.319"/>
<line x1="1235.080" y1="604.637" x2="934.447" y2="506.956"/>
<line x1="1235.080" y1="604.637" x2="1120.248" y2="762.689"/>
<line x1="1235.080" y1="604.637" x2="1017.540" y2="446.585"/>
<line x1="1235.080" y1="604.637" x2="1266.818" y2="702.319"/>
<line x1="697.292" y1="995.363" x2="665.553" y2="1093.044"/>
<line x1="697.292" y1="995.363" x2="396.659" y2="897.681"/>
<line x1="697.292" y1="995.363" x2="582.460" y2="1153.415"/>
<line x1="697.292" y1="995.363" x2="479.752" y2="837.311"/>
<line x1="697.292" y1="995.363" x2="997.924" y2="897.681"/>
<line x1="902.708" y1="604.637" x2="1203.341" y2="702.319"/>
<line x1="902.708" y1="604.637" x2="934.447" y2="506.956"/>
<line x1="902.708" y1="604.637" x2="1120.248" y2="762.689"/>
<line x1="902.708" y1="604.637" x2="1017.540" y2="446.585"/>
<line x1="902.708" y1="604.637" x2="602.076" y2="702.319"/>
<line x1="364.920" y1="995.363" x2="665.553" y2="1093.044"/>
<line x1="364.920" y1="995.363" x2="396.659" y2="897.681"/>
<line x1="364.920" y1="995.363" x2="582.460" y2="1153.415"/>
<line x1="364.920" y1="995.363" x2="479.752" y2="837.311"/>
<line x1="364.920" y1="995.363" x2="333.182" y2="897.681"/>
<line x1="1389.142" y1="958.052" x2="1337.788" y2="800.000"/>
<line x1="1389.142" y1="958.052" x2="1306.049" y2="1018.422"/>
<line x1="1389.142" y1="958.052" x2="1306.049" y2="1213.785"/>
<line x1="851.354" y1="1348.778" x2="800.000" y2="1190.726"/>
<line x1="851.354" y1="1348.778" x2="768.261" y2="1409.148"/>
<line x1="851.354" y1="1348.778" x2="1037.155" y2="1409.148"/>
<line x1="851.354" y1="567.326" x2="800.000" y2="409.274"/>
<line x1="851.354" y1="567.326" x2="1037.155" y2="823.059"/>
<line x1="851.354" y1="567.326" x2="768.261" y2="823.059"/>
<line x1="313.566" y1="958.052" x2="262.212" y2="800.000"/>
<line x1="1286.434" y1="641.948" x2="1337.788" y2="800.000"/>
<line x1="748.646" y1="1032.674" x2="800.000" y2="1190.726"/>
<line x1="748.646" y1="1032.674" x2="562.845" y2="776.941"/>
<line x1="748.646" y1="1032.674" x2="831.739" y2="776.941"/>
<line x1="748.646" y1="251.222" x2="800.000" y2="409.274"/>
<line x1="748.646" y1="251.222" x2="831.739" y2="190.852"/>
<line x1="748.646" y1="251.222" x2="562.845" y2="190.852"/>
<line x1="210.858" y1="641.948" x2="262.212" y2="800.000"/>
<line x1="210.858" y1="641.948" x2="293.951" y2="581.578"/>
<line x1="210.858" y1="641.948" x2="293.951" y2="386.215"/>
<line x1="1337.788" y1="800.000" x2="1203.341" y2="702.319"/>
<line x1="1337.788" y1="800.000" x2="1203.341" y2="897.681"/>
<line x1="800.000" y1="1190.726" x2="665.553" y2="1093.044"/>
<line x1="800.000" y1="1190.726" x2="934.447" y2="1093.044"/>
<line x1="800.000" y1="409.274" x2="934.447" y2="506.956"/>
<line x1="800.000" y1="409.274" x2="665.553" y2="506.956"/>
<line x1="262.212" y1="800.000" x2="396.659" y2="897.681"/>
<line x1="262.212" y1="800.000" x2="396.659" y2="702.319"/>
<line x1="1306.049" y1="1018.422" x2="1171.602" y2="920.741"/>
<line x1="1306.049" y1="1018.422" x2="1306.049" y2="1213.785"/>
<line x1="768.261" y1="1409.148" x2="633.814" y2="1311.467"/>
<line x1="768.261" y1="1409.148" x2="1037.155" y2="1409.148"/>
<line x1="1037.155" y1="823.059" x2="1171.602" y2="920.741"/>
<line x1="1037.155" y1="823.059" x2="768.261" y2="823.059"/>
<line x1="499.367" y1="1213.785" x2="633.814" y2="1311.467"/>
<line x1="1100.633" y1="386.215" x2="966.186" y2="288.533"/>
<line x1="562.845" y1="776.941" x2="428.398" y2="679.259"/>
<line x1="562.845" y1="776.941" x2="831.739" y2="776.941"/>
<line x1="831.739" y1="190.852" x2="966.186" y2="288.533"/>
<line x1="831.739" y1="190.852" x2="562.845" y2="190.852"/>
<line x1="293.951" y1="581.578" x2="428.398" y2="679.259"/>
<line x1="293.951" y1="581.578" x2="293.951" y2="386.215"/>
<line x1="1203.341" y1="702.319" x2="1120.248" y2="762.689"/>
<line x1="1203.341" y1="702.319" x2="1017.540" y2="446.585"/>
<line x1="1203.341" y1="702.319" x2="1203.341" y2="897.681"/>
<line x1="665.553" y1="1093.044" x2="582.460" y2="1153.415"/>
<line x1="665.553" y1="1093.044" x2="479.752" y2="837.311"/>
<line x1="665.553" y1="1093.044" x2="934.447" y2="1093.044"/>
<line x1="934.447" y1="506.956" x2="1120.248" y2="762.689"/>
<line x1="934.447" y1="506.956" x2="1017.540" y2="446.585"/>
<line x1="934.447" y1="506.956" x2="665.553" y2="506.956"/>
<line x1="396.659" y1="897.681" x2="582.460" y2="1153.415"/>
<line x1="396.659" y1="897.681" x2="479.752" y2="837.311"/>
<line x1="396.659" y1="897.681" x2="396.659" y2="702.319"/>
<line x1="1171.602" y1="920.741" x2="1120.248" y2="762.689"/>
<line x1="1171.602" y1="920.741" x2="1037.155" y2="1018.422"/>
<line x1="633.814" y1="1311.467" x2="582.460" y2="1153.415"/>
<line x1="633.814" y1="1311.467" x2="768.261" y2="1213.785"/>
<line x1="966.186" y1="288.533" x2="1017.540" y2="446.585"/>
<line x1="966.186" y1="288.533" x2="831.739" y2="386.215"/>
<line x1="428.398" y1="679.259" x2="479.752" y2="837.311"/>
<line x1="428.398" y1="679.259" x2="562.845" y2="581.578"/>
<line x1="1120.248" y1="762.689" x2="1037.155" y2="1018.422"/>
<line x1="582.460" y1="1153.415" x2="768.261" y2="1213.785"/>
<line x1="1017.540" y1="446.585" x2="831.739" y2="386.215"/>
<line x1="479.752" y1="837.311" x2="562.845" y2="581.578"/>
<line x1="1535.712" y1="897.681" x2="1452.619" y2="1153.415"/>
<line x1="1535.712" y1="897.681" x2="1349.911" y2="837.311"/>
<line x1="1535.712" y1="897.681" x2="1401.265" y2="995.363"/>
<line x1="1266.818" y1="1093.044" x2="1452.619" y2="1153.415"/>
<line x1="1266.818" y1="1093.044" x2="1349.911" y2="837.311"/>
<line x1="1266.818" y1="1093.044" x2="1401.265" y2="995.363"/>
<line x1="870.970" y1="897.681" x2="787.877" y2="1153.415"/>
<line x1="870.970" y1="897.681" x2="736.523" y2="995.363"/>
<line x1="602.076" y1="1093.044" x2="787.877" y2="1153.415"/>
<line x1="602.076" y1="1093.044" x2="685.169" y2="837.311"/>
<line x1="602.076" y1="1093.044" x2="736.523" y2="995.363"/>
<line x1="997.924" y1="506.956" x2="914.831" y2="762.689"/>
<line x1="997.924" y1="506.956" x2="812.123" y2="446.585"/>
<line x1="997.924" y1="506.956" x2="863.477" y2="604.637"/>
<line x1="729.030" y1="702.319" x2="812.123" y2="446.585"/>
<line x1="729.030" y1="702.319" x2="863.477" y2="604.637"/>
<line x1="333.182" y1="506.956" x2="250.089" y2="762.689"/>
<line x1="333.182" y1="506.956" x2="147.381" y2="446.585"/>
<line x1="333.182" y1="506.956" x2="198.735" y2="604.637"/>
<line x1="64.288" y1="702.319" x2="250.089" y2="762.689"/>
<line x1="64.288" y1="702.319" x2="147.381" y2="446.585"/>
<line x1="64.288" y1="702.319" x2="198.735" y2="604.637"/>
<line x1="1369.527" y1="1018.422" x2="1369.527" y2="1213.785"/>
<line x1="1369.527" y1="1018.422" x2="1100.633" y2="1018.422"/>
<line x1="1369.527" y1="1018.422" x2="1235.080" y2="1116.104"/>
<line x1="1100.633" y1="1213.785" x2="1369.527" y2="1213.785"/>
<line x1="1100.633" y1="1213.785" x2="1235.080" y2="1116.104"/>
<line x1="704.784" y1="1018.422" x2="704.784" y2="1213.785"/>
<line x1="704.784" y1="1018.422" x2="435.890" y2="1018.422"/>
<line x1="704.784" y1="1018.422" x2="570.337" y2="1116.104"/>
<line x1="435.890" y1="1213.785" x2="704.784" y2="1213.785"/>
<line x1="435.890" y1="1213.785" x2="435.890" y2="1018.422"/>
<line x1="435.890" y1="1213.785" x2="570.337" y2="1116.104"/>
<line x1="1164.110" y1="386.215" x2="1164.110" y2="581.578"/>
<line x1="1164.110" y1="386.215" x2="895.216" y2="386.215"/>
<line x1="1164.110" y1="386.215" x2="1029.663" y2="483.896"/>
<line x1="895.216" y1="581.578" x2="1164.110" y2="581.578"/>
<line x1="895.216" y1="581.578" x2="895.216" y2="386.215"/>
<line x1="895.216" y1="581.578" x2="1029.663" y2="483.896"/>
<line x1="499.367" y1="386.215" x2="230.473" y2="386.215"/>
<line x1="499.367" y1="386.215" x2="364.920" y2="483.896"/>
<line x1="230.473" y1="581.578" x2="499.367" y2="581.578"/>
<line x1="230.473" y1="581.578" x2="230.473" y2="386.215"/>
<line x1="230.473" y1="581.578" x2="364.920" y2="483.896"/>
<line x1="1266.818" y1="702.319" x2="1266.818" y2="897.681"/>
<line x1="1266.818" y1="702.319" x2="997.924" y2="702.319"/>
<line x1="1266.818" y1="702.319" x2="1183.725" y2="958.052"/>
<line x1="1266.818" y1="702.319" x2="1081.017" y2="641.948"/>
<line x1="997.924" y1="897.681" x2="1266.818" y2="897.681"/>
<line x1="997.924" y1="897.681" x2="997.924" y2="702.319"/>
<line x1="997.924" y1="897.681" x2="1183.725" y2="958.052"/>
<line x1="997.924" y1="897.681" x2="1081.017" y2="641.948"/>
<line x1="602.076" y1="702.319" x2="602.076" y2="897.681"/>
<line x1="602.076" y1="702.319" x2="333.182" y2="702.319"/>
<line x1="602.076" y1="702.319" x2="518.983" y2="958.052"/>
<line x1="602.076" y1="702.319" x2="416.275" y2="641.948"/>
<line x1="333.182" y1="897.681" x2="602.076" y2="897.681"/>
<line x1="333.182" y1="897.681" x2="333.182" y2="702.319"/>
<line x1="333.182" y1="897.681" x2="518.983" y2="958.052"/>
<line x1="333.182" y1="897.681" x2="416.275" y2="641.948"/>
<line x1="1306.049" y1="1213.785" x2="1337.788" y2="1311.467"/>
<line x1="1306.049" y1="1213.785" x2="1005.417" y2="1311.467"/>
<line x1="1306.049" y1="1213.785" x2="1171.602" y2="1311.467"/>
<line x1="1037.155" y1="1409.148" x2="1337.788" y2="1311.467"/>
<line x1="1037.155" y1="1409.148" x2="1005.417" y2="1311.467"/>
<line x1="1037.155" y1="1409.148" x2="1171.602" y2="1311.467"/>
<line x1="768.261" y1="823.059" x2="800.000" y2="920.741"/>
<line x1="768.261" y1="823.059" x2="467.629" y2="920.741"/>
<line x1="768.261" y1="823.059" x2="633.814" y2="920.741"/>
<line x1="499.367" y1="1018.422" x2="467.629" y2="920.741"/>
<line x1="499.367" y1="1018.422" x2="633.814" y2="920.741"/>
<line x1="1100.633" y1="581.578" x2="1132.371" y2="679.259"/>
<line x1="1100.633" y1="581.578" x2="966.186" y2="679.259"/>
<line x1="831.739" y1="776.941" x2="1132.371" y2="679.259"/>
<line x1="831.739" y1="776.941" x2="800.000" y2="679.259"/>
<line x1="831.739" y1="776.941" x2="966.186" y2="679.259"/>
<line x1="562.845" y1="190.852" x2="594.583" y2="288.533"/>
<line x1="562.845" y1="190.852" x2="262.212" y2="288.533"/>
<line x1="562.845" y1="190.852" x2="428.398" y2="288.533"/>
<line x1="293.951" y1="386.215" x2="594.583" y2="288.533"/>
<line x1="293.951" y1="386.215" x2="262.212" y2="288.533"/>
<line x1="293.951" y1="386.215" x2="428.398" y2="288.533"/>
<line x1="1203.341" y1="897.681" x2="1235.080" y2="995.363"/>
<line x1="1203.341" y1="897.681" x2="902.708" y2="995.363"/>
<line x1="1203.341" y1="897.681" x2="1120.248" y2="1153.415"/>
<line x1="1203.341" y1="897.681" x2="1017.540" y2="837.311"/>
<line x1="934.447" y1="1093.044" x2="1235.080" y2="995.363"/>
<line x1="934.447" y1="1093.044" x2="902.708" y2="995.363"/>
<line x1="934.447" y1="1093.044" x2="1120.248" y2="1153.415"/>
<line x1="934.447" y1="1093.044" x2="1017.540" y2="837.311"/>
<line x1="665.553" y1="506.956" x2="697.292" y2="604.637"/>
<line x1="665.553" y1="506.956" x2="364.920" y2="604.637"/>
<line x1="665.553" y1="506.956" x2="582.460" y2="762.689"/>
<line x1="665.553" y1="506.956" x2="479.752" y2="446.585"/>
<line x1="396.659" y1="702.319" x2="697.292" y2="604.637"/>
<line x1="396.659" y1="702.319" x2="364.920" y2="604.637"/>
<line x1="396.659" y1="702.319" x2="582.460" y2="762.689"/>
<line x1="396.659" y1="702.319" x2="479.752" y2="446.585"/>
<line x1="1037.155" y1="1018.422" x2="1068.894" y2="1116.104"/>
<line x1="1037.155" y1="1018.422" x2="736.523" y2="1116.104"/>
<line x1="1037.155" y1="1018.422" x2="1037.155" y2="1213.785"/>
<line x1="1037.155" y1="1018.422" x2="768.261" y2="1018.422"/>
<line x1="768.261" y1="1213.785" x2="1068.894" y2="1116.104"/>
<line x1="768.261" y1="1213.785" x2="736.523" y2="1116.104"/>
<line x1="768.261" y1="1213.785" x2="1037.155" y2="1213.785"/>
<line x1="768.261" y1="1213.785" x2="768.261" y2="1018.422"/>
<line x1="831.739" y1="386.215" x2="863.477" y2="483.896"/>
<line x1="831.739" y1="386.215" x2="531.106" y2="483.896"/>
<line x1="831.739" y1="386.215" x2="831.739" y2="581.578"/>
<line x1="831.739" y1="386.215" x2="562.845" y2="386.215"/>
<line x1="562.845" y1="581.578" x2="863.477" y2="483.896"/>
<line x1="562.845" y1="581.578" x2="531.106" y2="483.896"/>
<line x1="562.845" y1="581.578" x2="831.739" y2="581.578"/>
<line x1="562.845" y1="581.578" x2="562.845" y2="386.215"/>
<line x1="1452.619" y1="1153.415" x2="1401.265" y2="995.363"/>
<line x1="1452.619" y1="1153.415" x2="1369.527" y2="1213.785"/>
<line x1="1452.619" y1="1153.415" x2="1337.788" y2="1311.467"/>
<line x1="787.877" y1="1153.415" x2="736.523" y2="995.363"/>
<line x1="787.877" y1="1153.415" x2="704.784" y2="1213.785"/>
<line x1="787.877" y1="1153.415" x2="1005.417" y2="1311.467"/>
<line x1="914.831" y1="762.689" x2="863.477" y2="604.637"/>
<line x1="250.089" y1="762.689" x2="198.735" y2="604.637"/>
<line x1="250.089" y1="762.689" x2="435.890" y2="1018.422"/>
<line x1="250.089" y1="762.689" x2="467.629" y2="920.741"/>
<line x1="1349.911" y1="837.311" x2="1401.265" y2="995.363"/>
<line x1="1349.911" y1="837.311" x2="1164.110" y2="581.578"/>
<line x1="1349.911" y1="837.311" x2="1132.371" y2="679.259"/>
<line x1="685.169" y1="837.311" x2="736.523" y2="995.363"/>
<line x1="812.123" y1="446.585" x2="863.477" y2="604.637"/>
<line x1="812.123" y1="446.585" x2="895.216" y2="386.215"/>
<line x1="812.123" y1="446.585" x2="594.583" y2="288.533"/>
<line x1="147.381" y1="446.585" x2="198.735" y2="604.637"/>
<line x1="147.381" y1="446.585" x2="230.473" y2="386.215"/>
<line x1="147.381" y1="446.585" x2="262.212" y2="288.533"/>
<line x1="1401.265" y1="995.363" x2="1266.818" y2="897.681"/>
<line x1="1401.265" y1="995.363" x2="1235.080" y2="995.363"/>
<line x1="736.523" y1="995.363" x2="602.076" y2="897.681"/>
<line x1="736.523" y1="995.363" x2="902.708" y2="995.363"/>
<line x1="863.477" y1="604.637" x2="997.924" y2="702.319"/>
<line x1="863.477" y1="604.637" x2="697.292" y2="604.637"/>
<line x1="198.735" y1="604.637" x2="333.182" y2="702.319"/>
<line x1="198.735" y1="604.637" x2="364.920" y2="604.637"/>
<line x1="1369.527" y1="1213.785" x2="1235.080" y2="1116.104"/>
<line x1="1369.527" y1="1213.785" x2="1337.788" y2="1311.467"/>
<line x1="704.784" y1="1213.785" x2="570.337" y2="1116.104"/>
<line x1="704.784" y1="1213.785" x2="1005.417" y2="1311.467"/>
<line x1="1100.633" y1="1018.422" x2="1235.080" y2="1116.104"/>
<line x1="435.890" y1="1018.422" x2="570.337" y2="1116.104"/>
<line x1="435.890" y1="1018.422" x2="467.629" y2="920.741"/>
<line x1="1164.110" y1="581.578" x2="1029.663" y2="483.896"/>
<line x1="1164.110" y1="581.578" x2="1132.371" y2="679.259"/>
<line x1="499.367" y1="581.578" x2="364.920" y2="483.896"/>
<line x1="895.216" y1="386.215" x2="1029.663" y2="483.896"/>
<line x1="895.216" y1="386.215" x2="594.583" y2="288.533"/>
<line x1="230.473" y1="386.215" x2="364.920" y2="483.896"/>
<line x1="230.473" y1="386.215" x2="262.212" y2="288.533"/>
<line x1="1266.818" y1="897.681" x2="1183.725" y2="958.052"/>
<line x1="1266.818" y1="897.681" x2="1081.017" y2="641.948"/>
<line x1="1266.818" y1="897.681" x2="1235.080" y2="995.363"/>
<line x1="602.076" y1="897.681" x2="518.983" y2="958.052"/>
<line x1="602.076" y1="897.681" x2="416.275" y2="641.948"/>
<line x1="602.076" y1="897.681" x2="902.708" y2="995.363"/>
<line x1="997.924" y1="702.319" x2="1183.725" y2="958.052"/>
<line x1="997.924" y1="702.319" x2="1081.017" y2="641.948"/>
<line x1="997.924" y1="702.319" x2="697.292" y2="604.637"/>
<line x1="333.182" y1="702.319" x2="518.983" y2="958.052"/>
<line x1="333.182" y1="702.319" x2="416.275" y2="641.948"/>
<line x1="333.182" y1="702.319" x2="364.920" y2="604.637"/>
<line x1="1235.080" y1="1116.104" x2="1183.725" y2="958.052"/>
<line x1="1235.080" y1="1116.104" x2="1068.894" y2="1116.104"/>
<line x1="570.337" y1="1116.104" x2="518.983" y2="958.052"/>
<line x1="570.337" y1="1116.104" x2="736.523" y2="1116.104"/>
<line x1="1029.663" y1="483.896" x2="1081.017" y2="641.948"/>
<line x1="1029.663" y1="483.896" x2="863.477" y2="483.896"/>
<line x1="364.920" y1="483.896" x2="416.275" y2="641.948"/>
<line x1="364.920" y1="483.896" x2="531.106" y2="483.896"/>
<line x1="1183.725" y1="958.052" x2="1068.894" y2="1116.104"/>
<line x1="518.983" y1="958.052" x2="736.523" y2="1116.104"/>
<line x1="1081.017" y1="641.948" x2="863.477" y2="483.896"/>
<line x1="416.275" y1="641.948" x2="531.106" y2="483.896"/>
<line x1="1337.788" y1="1311.467" x2="1171.602" y2="1311.467"/>
<line x1="1005.417" y1="1311.467" x2="1171.602" y2="1311.467"/>
<line x1="800.000" y1="920.741" x2="633.814" y2="920.741"/>
<line x1="467.629" y1="920.741" x2="633.814" y2="920.741"/>
<line x1="1132.371" y1="679.259" x2="966.186" y2="679.259"/>
<line x1="800.000" y1="679.259" x2="966.186" y2="679.259"/>
<line x1="594.583" y1="288.533" x2="428.398" y2="288.533"/>
<line x1="262.212" y1="288.533" x2="428.398" y2="288.533"/>
<line x1="1235.080" y1="995.363" x2="1120.248" y2="1153.415"/>
<line x1="1235.080" y1="995.363" x2="1017.540" y2="837.311"/>
<line x1="902.708" y1="995.363" x2="1120.248" y2="1153.415"/>
<line x1="902.708" y1="995.363" x2="1017.540" y2="837.311"/>
<line x1="697.292" y1="604.637" x2="582.460" y2="762.689"/>
<line x1="697.292" y1="604.637" x2="479.752" y2="446.585"/>
<line x1="364.920" y1="604.637" x2="582.460" y2="762.689"/>
<line x1="364.920" y1="604.637" x2="479.752" y2="446.585"/>
<line x1="1068.894" y1="1116.104" x2="1037.155" y2="1213.785"/>
<line x1="1068.894" y1="1116.104" x2="768.261" y2="1018.422"/>
<line x1="736.523" y1="1116.104" x2="1037.155" y2="1213.785"/>
<line x1="736.523" y1="1116.104" x2="768.261" y2="1018.422"/>
<line x1="863.477" y1="483.896" x2="831.739" y2="581.578"/>
<line x1="863.477" y1="483.896" x2="562.845" y2="386.215"/>
<line x1="531.106" y1="483.896" x2="831.739" y2="581.578"/>
<line x1="531.106" y1="483.896" x2="562.845" y2="386.215"/>
<line x1="1171.602" y1="1311.467" x2="1120.248" y2="1153.415"/>
<line x1="1171.602" y1="1311.467" x2="1037.155" y2="1213.785"/>
<line x1="633.814" y1="920.741" x2="582.460" y2="762.689"/>
<line x1="633.814" y1="920.741" x2="768.261" y2="1018.422"/>
<line x1="966.186" y1="679.259" x2="1017.540" y2="837.311"/>
<line x1="966.186" y1="679.259" x2="831.739" y2="581.578"/>
<line x1="428.398" y1="288.533" x2="479.752" y2="446.585"/>
<line x1="428.398" y1="288.533" x2="562.845" y2="386.215"/>
<line x1="1120.248" y1="1153.415" x2="1037.155" y2="1213.785"/>
<line x1="582.460" y1="762.689" x2="768.261" y2="1018.422"/>
<line x1="1017.540" y1="837.311" x2="831.739" y2="581.578"/>
<line x1="479.752" y1="446.585" x2="562.845" y2="386.215"/>
</g>
<g style="stroke:#000000;stroke-width:3.0;fill:#ff0000">
<circle cx="1337.788" cy="288.533" r="18.8"/>
<circle cx="1132.371" cy="920.741" r="18.8"/>
<circle cx="594.583" cy="1311.467" r="18.8"/>
<circle cx="1005.417" cy="288.533" r="18.8"/>
<circle cx="467.629" cy="679.259" r="18.8"/>
<circle cx="262.212" cy="1311.467" r="18.8"/>
<circle cx="1306.049" cy="386.215" r="18.8"/>
<circle cx="768.261" cy="776.941" r="18.8"/>
<circle cx="562.845" cy="1409.148" r="18.8"/>
<circle cx="1037.155" cy="190.852" r="18.8"/>
<circle cx="831.739" cy="823.059" r="18.8"/>
<circle cx="293.951" cy="1213.785" r="18.8"/>
<circle cx="1222.957" cy="446.585" r="18.8"/>
<circle cx="1017.540" cy="1078.793" r="18.8"/>
<circle cx="479.752" cy="1469.519" r="18.8"/>
<circle cx="1120.248" cy="130.481" r="18.8"/>
<circle cx="582.460" cy="521.207" r="18.8"/>
<circle cx="377.043" cy="1153.415" r="18.8"/>
<circle cx="1369.527" cy="386.215" r="18.8"/>
<circle cx="1164.110" cy="1018.422" r="18.8"/>
<circle cx="895.216" cy="1213.785" r="18.8"/>
<circle cx="704.784" cy="386.215" r="18.8"/>
<circle cx="435.890" cy="581.578" r="18.8"/>
<circle cx="230.473" cy="1213.785" r="18.8"/>
<circle cx="1306.049" cy="581.578" r="18.8"/>
<circle cx="1037.155" cy="776.941" r="18.8"/>
<circle cx="831.739" cy="1409.148" r="18.8"/>
<circle cx="768.261" cy="190.852" r="18.8"/>
<circle cx="562.845" cy="823.059" r="18.8"/>
<circle cx="293.951" cy="1018.422" r="18.8"/>
<circle cx="1139.864" cy="702.319" r="18.8"/>
<circle cx="934.447" cy="1334.526" r="18.8"/>
<circle cx="665.553" cy="1529.889" r="18.8"/>
<circle cx="934.447" cy="70.111" r="18.8"/>
<circle cx="665.553" cy="265.474" r="18.8"/>
<circle cx="460.136" cy="897.681" r="18.8"/>
<circle cx="1369.527" cy="581.578" r="18.8"/>
<circle cx="1164.110" cy="1213.785" r="18.8"/>
<circle cx="704.784" cy="581.578" r="18.8"/>
<circle cx="895.216" cy="1018.422" r="18.8"/>
<circle cx="435.890" cy="386.215" r="18.8"/>
<circle cx="230.473" cy="1018.422" r="18.8"/>
<circle cx="1081.017" cy="1274.156" r="18.8"/>
<circle cx="621.691" cy="641.948" r="18.8"/>
<circle cx="416.275" cy="1274.156" r="18.8"/>
<circle cx="1183.725" cy="325.844" r="18.8"/>
<circle cx="978.309" cy="958.052" r="18.8"/>
<circle cx="518.983" cy="325.844" r="18.8"/>
<circle cx="1337.788" cy="679.259" r="18.8"/>
<circle cx="1132.371" cy="1311.467" r="18.8"/>
<circle cx="1005.417" cy="679.259" r="18.8"/>
<circle cx="594.583" cy="920.741" r="18.8"/>
<circle cx="467.629" cy="288.533" r="18.8"/>
<circle cx="262.212" cy="920.741" r="18.8"/>
<circle cx="966.186" cy="1432.208" r="18.8"/>
<circle cx="839.231" cy="800.000" r="18.8"/>
<circle cx="633.814" cy="1432.208" r="18.8"/>
<circle cx="966.186" cy="167.792" r="18.8"/>
<circle cx="760.769" cy="800.000" r="18.8"/>
<circle cx="633.814" cy="167.792" r="18.8"/>
<circle cx="1222.957" cy="837.311" r="18.8"/>
<circle cx="1017.540" cy="1469.519" r="18.8"/>
<circle cx="479.752" cy="1078.793" r="18.8"/>
<circle cx="1120.248" cy="521.207" r="18.8"/>
<circle cx="582.460" cy="130.481" r="18.8"/>
<circle cx="377.043" cy="762.689" r="18.8"/>
<circle cx="1139.864" cy="897.681" r="18.8"/>
<circle cx="934.447" cy="1529.889" r="18.8"/>
<circle cx="665.553" cy="1334.526" r="18.8"/>
<circle cx="934.447" cy="265.474" r="18.8"/>
<circle cx="665.553" cy="70.111" r="18.8"/>
<circle cx="460.136" cy="702.319" r="18.8"/>
<circle cx="1452.619" cy="446.585" r="18.8"/>
<circle cx="1349.911" cy="762.689" r="18.8"/>
<circle cx="812.123" cy="1153.415" r="18.8"/>
<circle cx="787.877" cy="446.585" r="18.8"/>
<circle cx="250.089" cy="837.311" r="18.8"/>
<circle cx="147.381" cy="1153.415" r="18.8"/>
<circle cx="1389.142" cy="641.948" r="18.8"/>
<circle cx="851.354" cy="1032.674" r="18.8"/>
<circle cx="748.646" cy="1348.778" r="18.8"/>
<circle cx="851.354" cy="251.222" r="18.8"/>
<circle cx="748.646" cy="567.326" r="18.8"/>
<circle cx="210.858" cy="958.052" r="18.8"/>
<circle cx="1222.957" cy="762.689" r="18.8"/>
<circle cx="1120.248" cy="1078.793" r="18.8"/>
<circle cx="582.460" cy="1469.519" r="18.8"/>
<circle cx="1017.540" cy="130.481" r="18.8"/>
<circle cx="479.752" cy="521.207" r="18.8"/>
<circle cx="377.043" cy="837.311" r="18.8"/>
<circle cx="1452.619" cy="837.311" r="18.8"/>
<circle cx="1349.911" cy="1153.415" r="18.8"/>
<circle cx="787.877" cy="837.311" r="18.8"/>
<circle cx="812.123" cy="762.689" r="18.8"/>
<circle cx="250.089" cy="446.585" r="18.8"/>
<circle cx="147.381" cy="762.689" r="18.8"/>
<circle cx="1183.725" cy="1274.156" r="18.8"/>
<circle cx="621.691" cy="958.052" r="18.8"/>
<circle cx="518.983" cy="1274.156" r="18.8"/>
<circle cx="1081.017" cy="325.844" r="18.8"/>
<circle cx="978.309" cy="641.948" r="18.8"/>
<circle cx="416.275" cy="325.844" r="18.8"/>
<circle cx="1222.957" cy="1153.415" r="18.8"/>
<circle cx="1120.248" cy="1469.519" r="18.8"/>
<circle cx="582.460" cy="1078.793" r="18.8"/>
<circle cx="1017.540" cy="521.207" r="18.8"/>
<circle cx="479.752" cy="130.481" r="18.8"/>
<circle cx="377.043" cy="446.585" r="18.8"/>
<circle cx="1535.712" cy="702.319" r="18.8"/>
<circle cx="997.924" cy="1093.044" r="18.8"/>
<circle cx="333.182" cy="1093.044" r="18.8"/>
<circle cx="1266.818" cy="506.956" r="18.8"/>
<circle cx="602.076" cy="506.956" r="18.8"/>
<circle cx="64.288" cy="897.681" r="18.8"/>
<circle cx="1452.619" cy="762.689" r="18.8"/>
<circle cx="787.877" cy="762.689" r="18.8"/>
<circle cx="250.089" cy="1153.415" r="18.8"/>
<circle cx="1349.911" cy="446.585" r="18.8"/>
<circle cx="812.123" cy="837.311" r="18.8"/>
<circle cx="147.381" cy="837.311" r="18.8"/>
<circle cx="1503.974" cy="800.000" r="18.8"/>
<circle cx="966.186" cy="1190.726" r="18.8"/>
<circle cx="633.814" cy="1190.726" r="18.8"/>
<circle cx="966.186" cy="409.274" r="18.8"/>
<circle cx="633.814" cy="409.274" r="18.8"/>
<circle cx="96.026" cy="800.000" r="18.8"/>
<circle cx="1337.788" cy="920.741" r="18.8"/>
<circle cx="1005.417" cy="920.741" r="18.8"/>
<circle cx="467.629" cy="1311.467" r="18.8"/>
<circle cx="1132.371" cy="288.533" r="18.8"/>
<circle cx="594.583" cy="679.259" r="18.8"/>
<circle cx="262.212" cy="679.259" r="18.8"/>
<circle cx="1389.142" cy="958.052" r="18.8"/>
<circle cx="851.354" cy="1348.778" r="18.8"/>
<circle cx="851.354" cy="567.326" r="18.8"/>
<circle cx="748.646" cy="1032.674" r="18.8"/>
<circle cx="748.646" cy="251.222" r="18.8"/>
<circle cx="210.858" cy="641.948" r="18.8"/>
<circle cx="1306.049" cy="1018.422" r="18.8"/>
<circle cx="768.261" cy="1409.148" r="18.8"/>
<circle cx="1037.155" cy="823.059" r="18.8"/>
<circle cx="562.845" cy="776.941" r="18.8"/>
<circle cx="831.739" cy="190.852" r="18.8"/>
<circle cx="293.951" cy="581.578" r="18.8"/>
<circle cx="1535.712" cy="897.681" r="18.8"/>
<circle cx="1266.818" cy="1093.044" r="18.8"/>
<circle cx="602.076" cy="1093.044" r="18.8"/>
<circle cx="997.924" cy="506.956" r="18.8"/>
<circle cx="333.182" cy="506.956" r="18.8"/>
<circle cx="64.288" cy="702.319" r="18.8"/>
<circle cx="1369.527" cy="1018.422" r="18.8"/>
<circle cx="704.784" cy="1018.422" r="18.8"/>
<circle cx="435.890" cy="1213.785" r="18.8"/>
<circle cx="1164.110" cy="386.215" r="18.8"/>
<circle cx="895.216" cy="581.578" r="18.8"/>
<circle cx="230.473" cy="581.578" r="18.8"/>
<circle cx="1306.049" cy="1213.785" r="18.8"/>
<circle cx="1037.155" cy="1409.148" r="18.8"/>
<circle cx="768.261" cy="823.059" r="18.8"/>
<circle cx="831.739" cy="776.941" r="18.8"/>
<circle cx="562.845" cy="190.852" r="18.8"/>
<circle cx="293.951" cy="386.215" r="18.8"/>
<circle cx="1452.619" cy="1153.415" r="18.8"/>
<circle cx="787.877" cy="1153.415" r="18.8"/>
<circle cx="250.089" cy="762.689" r="18.8"/>
<circle cx="1349.911" cy="837.311" r="18.8"/>
<circle cx="812.123" cy="446.585" r="18.8"/>
<circle cx="147.381" cy="446.585" r="18.8"/>
<circle cx="1369.527" cy="1213.785" r="18.8"/>
<circle cx="704.784" cy="1213.785" r="18.8"/>
<circle cx="435.890" cy="1018.422" r="18.8"/>
<circle cx="1164.110" cy="581.578" r="18.8"/>
<circle cx="895.216" cy="386.215" r="18.8"/>
<circle cx="230.473" cy="386.215" r="18.8"/>
<circle cx="1337.788" cy="1311.467" r="18.8"/>
<circle cx="1005.417" cy="1311.467" r="18.8"/>
<circle cx="467.629" cy="920.741" r="18.8"/>
<circle cx="1132.371" cy="679.259" r="18.8"/>
<circle cx="594.583" cy="288.533" r="18.8"/>
<circle cx="262.212" cy="288.533" r="18.8"/>
</g>
<g style="stroke:#000000;stroke-width:3.0;fill:#ff7f00">
<circle cx="800.000" cy="679.259" r="18.8"/>
<circle cx="800.000" cy="920.741" r="18.8"/>
<circle cx="1100.633" cy="1018.422" r="18.8"/>
<circle cx="499.367" cy="581.578" r="18.8"/>
<circle cx="685.169" cy="837.311" r="18.8"/>
<circle cx="914.831" cy="762.689" r="18.8"/>
<circle cx="1171.602" cy="288.533" r="18.8"/>
<circle cx="966.186" cy="920.741" r="18.8"/>
<circle cx="633.814" cy="679.259" r="18.8"/>
<circle cx="428.398" cy="1311.467" r="18.8"/>
<circle cx="1100.633" cy="581.578" r="18.8"/>
<circle cx="499.367" cy="1018.422" r="18.8"/>
<circle cx="1100.633" cy="1213.785" r="18.8"/>
<circle cx="499.367" cy="386.215" r="18.8"/>
<circle cx="870.970" cy="897.681" r="18.8"/>
<circle cx="729.030" cy="702.319" r="18.8"/>
<circle cx="1037.155" cy="386.215" r="18.8"/>
<circle cx="831.739" cy="1018.422" r="18.8"/>
<circle cx="768.261" cy="581.578" r="18.8"/>
<circle cx="562.845" cy="1213.785" r="18.8"/>
<circle cx="499.367" cy="1213.785" r="18.8"/>
<circle cx="1100.633" cy="386.215" r="18.8"/>
<circle cx="1286.434" cy="641.948" r="18.8"/>
<circle cx="313.566" cy="958.052" r="18.8"/>
<circle cx="1235.080" cy="483.896" r="18.8"/>
<circle cx="1029.663" cy="1116.104" r="18.8"/>
<circle cx="570.337" cy="483.896" r="18.8"/>
<circle cx="364.920" cy="1116.104" r="18.8"/>
<circle cx="800.000" cy="1311.467" r="18.8"/>
<circle cx="800.000" cy="288.533" r="18.8"/>
<circle cx="1171.602" cy="800.000" r="18.8"/>
<circle cx="428.398" cy="800.000" r="18.8"/>
<circle cx="1068.894" cy="483.896" r="18.8"/>
<circle cx="863.477" cy="1116.104" r="18.8"/>
<circle cx="736.523" cy="483.896" r="18.8"/>
<circle cx="531.106" cy="1116.104" r="18.8"/>
<circle cx="685.169" cy="446.585" r="18.8"/>
<circle cx="914.831" cy="1153.415" r="18.8"/>
<circle cx="1171.602" cy="679.259" r="18.8"/>
<circle cx="966.186" cy="1311.467" r="18.8"/>
<circle cx="633.814" cy="288.533" r="18.8"/>
<circle cx="428.398" cy="920.741" r="18.8"/>
<circle cx="870.970" cy="702.319" r="18.8"/>
<circle cx="729.030" cy="897.681" r="18.8"/>
<circle cx="1037.155" cy="581.578" r="18.8"/>
<circle cx="831.739" cy="1213.785" r="18.8"/>
<circle cx="768.261" cy="386.215" r="18.8"/>
<circle cx="562.845" cy="1018.422" r="18.8"/>
<circle cx="1005.417" cy="800.000" r="18.8"/>
<circle cx="800.000" cy="1432.208" r="18.8"/>
<circle cx="800.000" cy="167.792" r="18.8"/>
<circle cx="594.583" cy="800.000" r="18.8"/>
<circle cx="954.063" cy="641.948" r="18.8"/>
<circle cx="748.646" cy="1274.156" r="18.8"/>
<circle cx="851.354" cy="325.844" r="18.8"/>
<circle cx="645.937" cy="958.052" r="18.8"/>
<circle cx="914.831" cy="837.311" r="18.8"/>
<circle cx="685.169" cy="762.689" r="18.8"/>
<circle cx="1286.434" cy="958.052" r="18.8"/>
<circle cx="313.566" cy="641.948" r="18.8"/>
<circle cx="685.169" cy="1153.415" r="18.8"/>
<circle cx="914.831" cy="446.585" r="18.8"/>
<circle cx="1120.248" cy="446.585" r="18.8"/>
<circle cx="1017.540" cy="762.689" r="18.8"/>
<circle cx="582.460" cy="837.311" r="18.8"/>
<circle cx="479.752" cy="1153.415" r="18.8"/>
<circle cx="1183.725" cy="641.948" r="18.8"/>
<circle cx="1081.017" cy="958.052" r="18.8"/>
<circle cx="518.983" cy="641.948" r="18.8"/>
<circle cx="416.275" cy="958.052" r="18.8"/>
<circle cx="1120.248" cy="837.311" r="18.8"/>
<circle cx="1017.540" cy="1153.415" r="18.8"/>
<circle cx="582.460" cy="446.585" r="18.8"/>
<circle cx="479.752" cy="762.689" r="18.8"/>
<circle cx="954.063" cy="958.052" r="18.8"/>
<circle cx="851.354" cy="1274.156" r="18.8"/>
<circle cx="748.646" cy="325.844" r="18.8"/>
<circle cx="645.937" cy="641.948" r="18.8"/>
<circle cx="1401.265" cy="604.637" r="18.8"/>
<circle cx="863.477" cy="995.363" r="18.8"/>
<circle cx="736.523" cy="604.637" r="18.8"/>
<circle cx="198.735" cy="995.363" r="18.8"/>
<circle cx="1235.080" cy="604.637" r="18.8"/>
<circle cx="697.292" cy="995.363" r="18.8"/>
<circle cx="902.708" cy="604.637" r="18.8"/>
<circle cx="364.920" cy="995.363" r="18.8"/>
<circle cx="1337.788" cy="800.000" r="18.8"/>
<circle cx="800.000" cy="1190.726" r="18.8"/>
<circle cx="800.000" cy="409.274" r="18.8"/>
<circle cx="262.212" cy="800.000" r="18.8"/>
<circle cx="1203.341" cy="702.319" r="18.8"/>
<circle cx="665.553" cy="1093.044" r="18.8"/>
<circle cx="934.447" cy="506.956" r="18.8"/>
<circle cx="396.659" cy="897.681" r="18.8"/>
<circle cx="1171.602" cy="920.741" r="18.8"/>
<circle cx="633.814" cy="1311.467" r="18.8"/>
<circle cx="966.186" cy="288.533" r="18.8"/>
<circle cx="428.398" cy="679.259" r="18.8"/>
<circle cx="1120.248" cy="762.689" r="18.8"/>
<circle cx="582.460" cy="1153.415" r="18.8"/>
<circle cx="1017.540" cy="446.585" r="18.8"/>
<circle cx="479.752" cy="837.311" r="18.8"/>
<circle cx="1266.818" cy="702.319" r="18.8"/>
<circle cx="997.924" cy="897.681" r="18.8"/>
<circle cx="602.076" cy="702.319" r="18.8"/>
<circle cx="333.182" cy="897.681" r="18.8"/>
<circle cx="1203.341" cy="897.681" r="18.8"/>
<circle cx="934.447" cy="1093.044" r="18.8"/>
<circle cx="665.553" cy="506.956" r="18.8"/>
<circle cx="396.659" cy="702.319" r="18.8"/>
<circle cx="1037.155" cy="1018.422" r="18.8"/>
<circle cx="768.261" cy="1213.785" r="18.8"/>
<circle cx="831.739" cy="386.215" r="18.8"/>
<circle cx="562.845" cy="581.578" r="18.8"/>
<circle cx="1401.265" cy="995.363" r="18.8"/>
<circle cx="736.523" cy="995.363" r="18.8"/>
<circle cx="863.477" cy="604.637" r="18.8"/>
<circle cx="198.735" cy="604.637" r="18.8"/>
<circle cx="1266.818" cy="897.681" r="18.8"/>
<circle cx="602.076" cy="897.681" r="18.8"/>
<circle cx="997.924" cy="702.319" r="18.8"/>
<circle cx="333.182" cy="702.319" r="18.8"/>
<circle cx="1235.080" cy="1116.104" r="18.8"/>
<circle cx="570.337" cy="1116.104" r="18.8"/>
<circle cx="1029.663" cy="483.896" r="18.8"/>
<circle cx="364.920" cy="483.896" r="18.8"/>
<circle cx="1183.725" cy="958.052" r="18.8"/>
<circle cx="518.983" cy="958.052" r="18.8"/>
<circle cx="1081.017" cy="641.948" r="18.8"/>
<circle cx="416.275" cy="641.948" r="18.8"/>
<circle cx="1235.080" cy="995.363" r="18.8"/>
<circle cx="902.708" cy="995.363" r="18.8"/>
<circle cx="697.292" cy="604.637" r="18.8"/>
<circle cx="364.920" cy="604.637" r="18.8"/>
<circle cx="1068.894" cy="1116.104" r="18.8"/>
<circle cx="736.523" cy="1116.104" r="18.8"/>
<circle cx="863.477" cy="483.896" r="18.8"/>
<circle cx="531.106" cy="483.896" r="18.8"/>
<circle cx="1171.602" cy="1311.467" r="18.8"/>
<circle cx="633.814" cy="920.741" r="18.8"/>
<circle cx="966.186" cy="679.259" r="18.8"/>
<circle cx="428.398" cy="288.533" r="18.8"/>
<circle cx="1120.248" cy="1153.415" r="18.8"/>
<circle cx="582.460" cy="762.689" r="18.8"/>
<circle cx="1017.540" cy="837.311" r="18.8"/>
<circle cx="479.752" cy="446.585" r="18.8"/>
<circle cx="1037.155" cy="1213.785" r="18.8"/>
<circle cx="768.261" cy="1018.422" r="18.8"/>
<circle cx="831.739" cy="581.578" r="18.8"/>
<circle cx="562.845" cy="386.215" r="18.8"/>
</g>
</svg>
